<svg xmlns="http://www.w3.org/2000/svg" viewBox="0 0 931.25 800"><defs><style>.cls-1,.cls-11{fill:#fff;}.cls-1,.cls-2,.cls-3,.cls-4,.cls-5,.cls-6,.cls-7{fill-rule:evenodd;}.cls-2{fill:#e3f0f5;}.cls-3{fill:#bfd6de;}.cls-4{fill:#b5d1db;}.cls-5{fill:#8aa6b3;}.cls-6{fill:#d4ebf5;}.cls-7{fill:#deebf2;}.cls-8{font-size:12px;font-family:MyriadPro-Regular, Myriad Pro;}.cls-9{letter-spacing:-0.01em;}.cls-10{letter-spacing:-0.01em;}.cls-11{stroke:#000;stroke-miterlimit:10;}</style></defs><title>svg_interactive</title><g id="background"><polygon class="cls-1" points="0 0.01 0 799.83 799.82 799.83 799.82 0.01 0 0.01 0 0.01"/><path class="cls-2" d="M36.24,779.8V761.65h-17v-1.41H36.24v-18.7h-17v-1.4H36.24v-18.7h-17V720H36.24V701.34h-17v-1.42H36.24V681.23h-17v-1.41H36.24V661.13h-17l0-1.41H36.24V641h-17v-1.41H36.24V620.93h-17v-1.42H36.24V600.83H19.17l0-1.42H36.24V580.72h-17V579.3H36.24V560.62h-17l0-1.41H36.24V540.52h-17V539.1H36.24V520.41h-17l0-1.42h17V500.31H19.17V498.9H36.24V480.21h-17v-1.42H36.24V460.1h-17v-1.41H36.24V440h-17v-1.41H36.24V419.89h-17v-1.41H36.24V399.79h-17v-1.41H36.24V379.69h-17v-1.41h17V359.59H19.17l0-1.42H36.24V339.48h-17v-1.41H36.24V319.38h-17l0-1.42H36.24V299.27h-17v-1.41H36.24V279.18h-17l0-1.42h17V259.07h-17v-1.42H36.24V239h-17v-1.41H36.24V218.86h-17l0-1.41H36.24V198.76h-17v-1.41H36.24V178.66h-17v-1.42H36.24V158.55h-17v-1.41H36.24V138.45h-17V137H36.24v-18.7h-17v-1.41H36.24V98.24h-17V96.82H36.24V78.14h-17V76.72H36.24V58h-17V56.62H36.24V37.93h-17l0-1.41H36.24V17.83h-17V16.41H36.24v-.9h1.41v.9H56.36v-.9h1.41v.9h18.7v-.9h1.42v.9h18.7v-.9H98v.9h18.71v-.9h1.4v.9h18.71v-.9h1.41v.9h18.71v-.9h1.41v.9h18.7v-.9h1.42v.9h18.69v-.9h1.42v.9h18.7v-.9h1.41v.9H237.4v-.9h1.41v.9h18.7v-.9h1.42v.9h18.7v-.9H279v.9h18.71v-.9h1.41v.9h18.7v-.9h1.42v.9H338v-.9h1.42v.9h18.7v-.9h1.41v.9h18.71v-.9h1.41v.9h18.7v-.9h1.42v.9h18.7v-.9h1.41v.9h18.7v-.9H440v.9h18.7v-.9h1.41v.9h18.71v-.9h1.41v.9h18.7v-.9h1.42v.9H519v-.9h1.41v.9h18.7v-.9h1.41v.9h18.7v-.9h1.41v.9h18.7v-.9h1.42v.9h18.7v-.9h1.42v.9h18.7v-.9H621v.9h18.71v-.9h1.4v.9h18.7v-.9h1.42v.9h18.7v-.9h1.42v.9h18.69v-.9h1.42v.9h18.71v-.9h1.41v.9h18.7v-.9h1.41v.9h18.71v-.9h1.41v.9h18.7v-.9h1.42v.9h2v1.42h-2V36.52h2v1.41h-2V56.62h2L784,58h-2V76.72h2v1.42h-2V96.82h2v1.42h-2v18.69h2v1.41h-2V137h2v1.41h-2v18.69h2v1.41h-2v18.69h2v1.42h-2v18.69h2v1.41h-2v18.69h2v1.41h-2v18.7h2l0,1.4h-2v18.69h1.95l.06,1.42h-2v18.69h2v1.42h-2v18.68h2l0,1.41h-2V318h2v1.42h-2v18.69h2v1.41h-2v18.69h1.95l.06,1.41h-2v18.7h2v1.41h-2v18.69h2v1.41h-2v18.69h2v1.41h-2v18.69h1.95L784,440h-2v18.69h2v1.41h-2v18.69h2v1.42h-2V498.9h2v1.41h-2V519h2l0,1.43h-2V539.1h1.95v1.42h-1.95v18.69h2v1.41h-2V579.3h2l-.06,1.42h-1.95v18.69h2v1.42h-2v18.68h2l0,1.42h-2v18.69h2l-.06,1.41h-1.95v18.69h2v1.41h-2v18.69h2v1.41h-2v18.69h2v1.42h-2V720h2v1.41h-2v18.7h2v1.4h-2v18.7h2v1.41h-2V779.8h-1.42V761.65h-18.7V779.8h-1.41V761.65H741.7V779.8h-1.41V761.65h-18.7V779.8h-1.41V761.65H701.47V779.8h-1.42V761.65H681.36V779.8h-1.42V761.65h-18.7V779.8h-1.42V761.65h-18.7V779.8h-1.4V761.65H621V779.8H619.6V761.65H600.9V779.8h-1.42V761.65h-18.7V779.8h-1.42V761.65h-18.7V779.8h-1.41V761.65h-18.7V779.8h-1.41V761.65h-18.7V779.8H519V761.65H500.32V779.8H498.9V761.65H480.2V779.8h-1.41V761.65H460.08V779.8h-1.41V761.65H440V779.8h-1.42V761.65h-18.7V779.8h-1.42V761.65H399.74V779.8h-1.42V761.65h-18.7V779.8h-1.41V761.65H359.5V779.8h-1.41V761.65h-18.7V779.8H338V761.65H319.28V779.8h-1.42V761.65h-18.7V779.8h-1.41V761.65H279V779.8h-1.41V761.65h-18.7V779.8h-1.42V761.65h-18.7V779.8h-1.42V761.65h-18.7V779.8h-1.41V761.65H198.58V779.8h-1.42V761.65H178.47V779.8h-1.42V761.65h-18.7V779.8h-1.41V761.65H138.23V779.8h-1.41V761.65H118.11V779.8h-1.4V761.65H98V779.8H96.59V761.65H77.89V779.8H76.47V761.65H57.77V779.8H56.36V761.65H37.65V779.8Zm20.12-19.56v-18.7H37.65v18.7Zm20.11,0v-18.7H57.77v18.7Zm20.12,0v-18.7H77.89v18.7Zm20.12,0v-18.7H98v18.7Zm20.11,0v-18.7H118.11v18.7Zm20.12,0v-18.7H138.23v18.7Zm20.11,0v-18.7h-18.7v18.7Zm20.11,0v-18.7H178.47v18.7Zm20.12,0v-18.7h-18.7v18.7Zm20.12,0v-18.7H218.69v18.7Zm20.11,0v-18.7h-18.7v18.7Zm20.12,0v-18.7h-18.7v18.7Zm20.12,0v-18.7H279v18.7Zm20.11,0v-18.7h-18.7v18.7Zm20.11,0v-18.7H319.28v18.7Zm20.12,0v-18.7h-18.7v18.7Zm20.12,0v-18.7H359.5v18.7Zm20.11,0v-18.7h-18.7v18.7Zm20.12,0v-18.7h-18.7v18.7Zm20.11,0v-18.7h-18.7v18.7Zm20.12,0v-18.7H440v18.7Zm20.12,0v-18.7H460.08v18.7Zm20.11,0v-18.7H480.2v18.7Zm20.12,0v-18.7h-18.7v18.7Zm20.11,0v-18.7h-18.7v18.7Zm20.12,0v-18.7H540.54v18.7Zm20.11,0v-18.7h-18.7v18.7Zm20.12,0v-18.7h-18.7v18.7Zm20.12,0v-18.7H600.9v18.7Zm20.12,0v-18.7H621v18.7Zm20.1,0v-18.7h-18.7v18.7Zm20.12,0v-18.7h-18.7v18.7Zm20.11,0v-18.7H681.36v18.7Zm20.13,0v-18.7H701.47v18.7Zm20.11,0v-18.7h-18.7v18.7Zm20.12,0v-18.7H741.7v18.7Zm20.11,0v-18.7h-18.7v18.7ZM57.77,740.14h18.7v-18.7H57.77v18.7Zm722.75,0v-18.7h-18.7v18.7Zm-724.16,0v-18.7H37.65v18.7Zm40.23,0v-18.7H77.89v18.7Zm20.12,0v-18.7H98v18.7Zm20.11,0v-18.7H118.11v18.7Zm20.12,0v-18.7H138.23v18.7Zm20.11,0v-18.7h-18.7v18.7Zm20.11,0v-18.7H178.47v18.7Zm20.12,0v-18.7h-18.7v18.7Zm20.12,0v-18.7H218.69v18.7Zm20.11,0v-18.7h-18.7v18.7Zm20.12,0v-18.7h-18.7v18.7Zm20.12,0v-18.7H279v18.7Zm20.11,0v-18.7h-18.7v18.7Zm20.11,0v-18.7H319.28v18.7Zm20.12,0v-18.7h-18.7v18.7Zm20.12,0v-18.7H359.5v18.7Zm20.11,0v-18.7h-18.7v18.7Zm20.12,0v-18.7h-18.7v18.7Zm20.11,0v-18.7h-18.7v18.7Zm20.12,0v-18.7H440v18.7Zm20.12,0v-18.7H460.08v18.7Zm20.11,0v-18.7H480.2v18.7Zm20.12,0v-18.7h-18.7v18.7Zm20.11,0v-18.7h-18.7v18.7Zm20.12,0v-18.7h-18.7v18.7Zm20.11,0v-18.7h-18.7v18.7Zm20.12,0v-18.7h-18.7v18.7Zm20.12,0v-18.7H600.9v18.7Zm20.12,0v-18.7H621v18.7Zm20.1,0v-18.7h-18.7v18.7Zm20.12,0v-18.7h-18.7v18.7Zm20.12,0v-18.7H681.36v18.7Zm20.12,0v-18.7H701.47v18.7Zm20.11,0v-18.7h-18.7v18.7Zm20.12,0v-18.7H741.7v18.7ZM77.89,720h18.7V701.34H77.89V720Zm40.22,0h18.71V701.34H118.11V720Zm140.82,0h18.7V701.34h-18.7V720Zm320.43,0V701.34h-18.7V720Zm140.82,0V701.34H701.47V720Zm40.23,0V701.34H741.7V720Zm-704,0V701.34H37.65V720Zm20.11,0V701.34H57.77V720Zm40.24,0V701.34H98V720Zm40.23,0V701.34H138.23V720Zm20.11,0V701.34h-18.7V720Zm20.11,0V701.34H178.47V720Zm20.13,0V701.34h-18.7V720Zm20.1,0V701.34H218.69V720Zm20.12,0V701.34h-18.7V720Zm40.24,0V701.34H279V720Zm20.11,0V701.34h-18.7V720ZM338,720V701.34H319.28V720Zm20.12,0V701.34h-18.7V720Zm20.12,0V701.34H359.5V720Zm20.11,0V701.34h-18.7V720Zm20.11,0V701.34h-18.7V720Zm20.12,0V701.34h-18.7V720Zm20.12,0V701.34H440V720Zm20.12,0V701.34H460.08V720Zm20.11,0V701.34H480.2V720ZM519,720V701.34h-18.7V720Zm20.12,0V701.34h-18.7V720Zm20.12,0V701.34h-18.7V720Zm40.23,0V701.34h-18.7V720Zm20.11,0V701.34H600.9V720Zm20.13,0V701.34H621V720Zm20.1,0V701.34h-18.7V720Zm20.12,0V701.34h-18.7V720Zm20.11,0V701.34H681.36V720Zm40.24,0V701.34h-18.7V720Zm40.23,0V701.34h-18.7V720ZM57.77,699.92h18.7V681.23H57.77v18.69Zm80.46,0h18.71V681.23H138.23v18.69Zm100.58,0h18.7V681.23h-18.7v18.69Zm360.67,0V681.23h-18.7v18.69Zm100.57,0V681.23H681.36v18.69Zm80.47,0V681.23h-18.7v18.69Zm-724.16,0V681.23H37.65v18.69Zm40.23,0V681.23H77.89v18.69Zm20.12,0V681.23H98v18.69Zm20.11,0V681.23H118.11v18.69Zm40.23,0V681.23h-18.7v18.69Zm20.11,0V681.23H178.47v18.69Zm20.12,0V681.23h-18.7v18.69Zm20.12,0V681.23H218.69v18.69Zm40.23,0V681.23h-18.7v18.69Zm20.12,0V681.23H279v18.69Zm20.11,0V681.23h-18.7v18.69Zm20.11,0V681.23H319.28v18.69Zm20.12,0V681.23h-18.7v18.69Zm20.12,0V681.23H359.5v18.69Zm20.11,0V681.23h-18.7v18.69Zm20.12,0V681.23h-18.7v18.69Zm20.11,0V681.23h-18.7v18.69Zm20.12,0V681.23H440v18.69Zm20.12,0V681.23H460.08v18.69Zm20.11,0V681.23H480.2v18.69Zm20.12,0V681.23h-18.7v18.69Zm20.11,0V681.23h-18.7v18.69Zm20.12,0V681.23h-18.7v18.69Zm20.11,0V681.23h-18.7v18.69Zm40.24,0V681.23H600.9v18.69Zm20.12,0V681.23H621v18.69Zm20.1,0V681.23h-18.7v18.69Zm20.12,0V681.23h-18.7v18.69Zm40.24,0V681.23H701.47v18.69Zm20.11,0V681.23h-18.7v18.69Zm20.12,0V681.23H741.7v18.69Zm-704-20.1V661.13H37.65v18.69Zm20.11,0V661.13H57.77v18.69Zm20.12,0V661.13H77.89v18.69Zm20.12,0V661.13H98v18.69Zm20.11,0V661.13H118.11v18.69Zm20.12,0V661.13H138.23v18.69Zm20.11,0V661.13h-18.7v18.69Zm20.11,0V661.13H178.47v18.69Zm20.12,0V661.13h-18.7v18.69Zm20.12,0V661.13h-18.7v18.69Zm20.11,0V661.13h-18.7v18.69Zm20.12,0V661.13h-18.7v18.69Zm20.12,0V661.13H279v18.69Zm20.11,0V661.13h-18.7v18.69Zm20.11,0V661.13H319.28v18.69Zm20.12,0V661.13h-18.7v18.69Zm20.12,0V661.13H359.5v18.69Zm20.11,0V661.13h-18.7v18.69Zm20.12,0V661.13H399.74v18.69Zm20.11,0V661.13h-18.7v18.69Zm20.12,0V661.13H440v18.69Zm20.12,0V661.13H460.08v18.69Zm20.11,0V661.13H480.2v18.69Zm20.12,0V661.13h-18.7v18.69Zm20.11,0V661.13h-18.7v18.69Zm20.12,0V661.13h-18.7v18.69Zm20.11,0V661.13h-18.7v18.69Zm20.12,0V661.13h-18.7v18.69Zm20.12,0V661.13H600.9v18.69Zm20.12,0V661.13H621v18.69Zm20.1,0V661.13h-18.7v18.69Zm20.12,0V661.13h-18.7v18.69Zm20.11,0V661.13H681.36v18.69Zm20.13,0V661.13H701.47v18.69Zm20.11,0V661.13h-18.7v18.69Zm20.12,0V661.13H741.7v18.69Zm20.11,0V661.13h-18.7v18.69ZM56.36,659.72V641H37.65v18.69Zm20.11,0V641H57.77v18.69Zm20.12,0V641H77.89v18.69Zm20.12,0V641H98v18.69Zm20.11,0V641H118.11v18.69Zm20.12,0V641H138.23v18.69Zm20.11,0V641h-18.7v18.69Zm20.11,0V641H178.47v18.69Zm20.12,0V641h-18.7v18.69Zm20.12,0V641H218.69v18.69Zm20.11,0V641h-18.7v18.69Zm20.12,0V641h-18.7v18.69Zm20.12,0V641H279v18.69Zm20.11,0V641h-18.7v18.69Zm20.11,0V641H319.28v18.69Zm20.12,0V641h-18.7v18.69Zm20.12,0V641H359.5v18.69Zm20.11,0V641h-18.7v18.69Zm20.12,0V641h-18.7v18.69Zm20.11,0V641h-18.7v18.69Zm20.12,0V641H440v18.69Zm20.12,0V641H460.08v18.69Zm20.11,0V641H480.2v18.69Zm20.12,0V641h-18.7v18.69Zm20.11,0V641h-18.7v18.69Zm20.12,0V641H540.54v18.69Zm20.11,0V641h-18.7v18.69Zm20.12,0V641h-18.7v18.69Zm20.12,0V641H600.9v18.69Zm20.12,0V641H621v18.69Zm20.1,0V641h-18.7v18.69Zm20.12,0V641h-18.7v18.69Zm20.11,0V641H681.36v18.69Zm20.13,0V641H701.47v18.69Zm20.11,0V641h-18.7v18.69Zm20.12,0V641H741.7v18.69Zm20.11,0V641h-18.7v18.69ZM56.36,639.62V620.93H37.65v18.69Zm20.11,0V620.93H57.77v18.69Zm20.12,0V620.93H77.89v18.69Zm20.12,0V620.93H98v18.69Zm20.11,0V620.93H118.11v18.69Zm20.12,0V620.93H138.23v18.69Zm20.11,0V620.93h-18.7v18.69Zm20.11,0V620.93H178.47v18.69Zm20.12,0V620.93h-18.7v18.69Zm20.12,0V620.93H218.69v18.69Zm20.11,0V620.93h-18.7v18.69Zm20.12,0V620.93h-18.7v18.69Zm20.12,0V620.93H279v18.69Zm20.11,0V620.93h-18.7v18.69Zm20.11,0V620.93H319.28v18.69Zm20.12,0V620.93h-18.7v18.69Zm20.12,0V620.93H359.5v18.69Zm20.11,0V620.93h-18.7v18.69Zm20.12,0V620.93h-18.7v18.69Zm20.11,0V620.93h-18.7v18.69Zm20.12,0V620.93H440v18.69Zm20.12,0V620.93H460.08v18.69Zm20.11,0V620.93H480.2v18.69Zm20.12,0V620.93h-18.7v18.69Zm20.11,0V620.93h-18.7v18.69Zm20.12,0V620.93h-18.7v18.69Zm20.11,0V620.93h-18.7v18.69Zm1.42,0h18.7V620.93h-18.7v18.69Zm38.82,0V620.93H600.9v18.69Zm20.12,0V620.93H621v18.69Zm20.1,0V620.93h-18.7v18.69Zm20.12,0V620.93h-18.7v18.69Zm1.42,0h18.69V620.93H681.36v18.69Zm38.82,0V620.93H701.47v18.69Zm20.11,0V620.93h-18.7v18.69Zm20.12,0V620.93H741.7v18.69Zm1.41,0h18.7V620.93h-18.7v18.69ZM56.36,619.51V600.83H37.65v18.68Zm20.11,0V600.83H57.77v18.68Zm20.12,0V600.83H77.89v18.68Zm20.12,0V600.83H98v18.68Zm20.11,0V600.83H118.11v18.68Zm20.12,0V600.83H138.23v18.68Zm20.11,0V600.83h-18.7v18.68Zm20.11,0V600.83H178.47v18.68Zm20.13,0V600.83h-18.7v18.68Zm20.1,0V600.83H218.69v18.68Zm20.12,0V600.83h-18.7v18.68Zm20.12,0V600.83h-18.7v18.68Zm20.12,0V600.83H279v18.68Zm20.11,0V600.83h-18.7v18.68Zm20.11,0V600.83H319.28v18.68Zm20.12,0V600.83h-18.7v18.68Zm20.12,0V600.83H359.5v18.68Zm20.11,0V600.83h-18.7v18.68Zm20.11,0V600.83h-18.7v18.68Zm20.12,0V600.83h-18.7v18.68Zm20.12,0V600.83H440v18.68Zm20.12,0V600.83H460.08v18.68Zm20.11,0V600.83H480.2v18.68Zm20.11,0V600.83h-18.7v18.68Zm20.12,0V600.83h-18.7v18.68Zm20.12,0V600.83h-18.7v18.68Zm1.41,0h18.7V600.83h-18.7v18.68Zm38.82,0V600.83h-18.7v18.68Zm20.11,0V600.83H600.9v18.68Zm20.13,0V600.83H621v18.68Zm20.1,0V600.83h-18.7v18.68Zm20.12,0V600.83h-18.7v18.68Zm20.11,0V600.83H681.36v18.68Zm1.42,0h18.71V600.83H701.47v18.68Zm38.82,0V600.83h-18.7v18.68Zm1.41,0h18.71V600.83H741.7v18.68Zm38.82,0V600.83h-18.7v18.68ZM56.36,599.41V580.72H37.65v18.69Zm20.11,0V580.72H57.77v18.69Zm20.12,0V580.72H77.89v18.69Zm20.12,0V580.72H98v18.69Zm20.11,0V580.72H118.11v18.69Zm20.12,0V580.72H138.23v18.69Zm20.11,0V580.72h-18.7v18.69Zm20.11,0V580.72H178.47v18.69Zm20.12,0V580.72h-18.7v18.69Zm20.12,0V580.72H218.69v18.69Zm20.11,0V580.72h-18.7v18.69Zm20.12,0V580.72h-18.7v18.69Zm20.12,0V580.72H279v18.69Zm20.11,0V580.72h-18.7v18.69Zm20.11,0V580.72H319.28v18.69Zm20.12,0V580.72h-18.7v18.69Zm20.12,0V580.72H359.5v18.69Zm20.11,0V580.72h-18.7v18.69Zm20.12,0V580.72h-18.7v18.69Zm20.11,0V580.72h-18.7v18.69Zm20.12,0V580.72H440v18.69Zm20.12,0V580.72H460.08v18.69Zm20.11,0V580.72H480.2v18.69Zm20.12,0V580.72h-18.7v18.69Zm20.11,0V580.72h-18.7v18.69Zm20.12,0V580.72h-18.7v18.69Zm20.11,0V580.72h-18.7v18.69Zm20.12,0V580.72h-18.7v18.69Zm20.12,0V580.72H600.9v18.69Zm20.12,0V580.72H621v18.69Zm20.1,0V580.72h-18.7v18.69Zm20.12,0V580.72h-18.7v18.69Zm20.12,0V580.72H681.36v18.69Zm20.12,0V580.72H701.47v18.69Zm20.11,0V580.72h-18.7v18.69Zm20.12,0V580.72H741.7v18.69Zm1.41,0h18.7V580.72h-18.7v18.69ZM56.36,579.3V560.62H37.65V579.3Zm20.11,0V560.62H57.77V579.3Zm20.12,0V560.62H77.89V579.3Zm20.12,0V560.62H98V579.3Zm20.11,0V560.62H118.11V579.3Zm20.12,0V560.62H138.23V579.3Zm20.11,0V560.62h-18.7V579.3Zm20.11,0V560.62H178.47V579.3Zm20.12,0V560.62h-18.7V579.3Zm20.12,0V560.62h-18.7V579.3Zm20.11,0V560.62h-18.7V579.3Zm20.12,0V560.62h-18.7V579.3Zm20.12,0V560.62H279V579.3Zm20.11,0V560.62h-18.7V579.3Zm20.11,0V560.62H319.28V579.3Zm20.12,0V560.62h-18.7V579.3Zm20.12,0V560.62H359.5V579.3Zm20.11,0V560.62h-18.7V579.3Zm20.12,0V560.62h-18.7V579.3Zm20.11,0V560.62h-18.7V579.3Zm20.12,0V560.62H440V579.3Zm20.12,0V560.62H460.08V579.3Zm20.11,0V560.62H480.2V579.3Zm20.12,0V560.62h-18.7V579.3Zm20.11,0V560.62h-18.7V579.3Zm20.12,0V560.62h-18.7V579.3Zm20.11,0V560.62h-18.7V579.3Zm20.12,0V560.62h-18.7V579.3Zm20.12,0V560.62H600.9V579.3Zm20.12,0V560.62H621V579.3Zm20.1,0V560.62h-18.7V579.3Zm20.12,0V560.62h-18.7V579.3Zm20.11,0V560.62H681.36V579.3Zm20.13,0V560.62H701.47V579.3Zm20.11,0V560.62h-18.7V579.3Zm20.12,0V560.62H741.7V579.3Zm20.11,0V560.62h-18.7V579.3ZM56.36,559.21V540.52H37.65v18.69Zm20.11,0V540.52H57.77v18.69Zm20.12,0V540.52H77.89v18.69Zm20.12,0V540.52H98v18.69Zm20.11,0V540.52H118.11v18.69Zm20.12,0V540.52H138.23v18.69Zm20.11,0V540.52h-18.7v18.69Zm20.11,0V540.52H178.47v18.69Zm20.12,0V540.52h-18.7v18.69Zm20.12,0V540.52H218.69v18.69Zm20.11,0V540.52h-18.7v18.69Zm20.12,0V540.52h-18.7v18.69Zm20.12,0V540.52H279v18.69Zm20.11,0V540.52h-18.7v18.69Zm20.11,0V540.52H319.28v18.69Zm20.12,0V540.52h-18.7v18.69Zm20.12,0V540.52H359.5v18.69Zm20.11,0V540.52h-18.7v18.69Zm20.12,0V540.52h-18.7v18.69Zm20.11,0V540.52h-18.7v18.69Zm20.12,0V540.52H440v18.69Zm20.12,0V540.52H460.08v18.69Zm20.11,0V540.52H480.2v18.69Zm20.12,0V540.52h-18.7v18.69Zm20.11,0V540.52h-18.7v18.69Zm20.12,0V540.52H540.54v18.69Zm20.11,0V540.52h-18.7v18.69Zm20.12,0V540.52h-18.7v18.69Zm20.12,0V540.52H600.9v18.69Zm20.12,0V540.52H621v18.69Zm20.1,0V540.52h-18.7v18.69Zm20.12,0V540.52h-18.7v18.69Zm20.11,0V540.52H681.36v18.69Zm20.13,0V540.52H701.47v18.69Zm20.11,0V540.52h-18.7v18.69Zm20.12,0V540.52H741.7v18.69Zm20.11,0V540.52h-18.7v18.69ZM37.65,539.1H56.36V520.42H37.65V539.1Zm38.82,0V520.41H57.77V539.1Zm1.42,0h18.7V520.42H77.89V539.1Zm38.82,0V520.41H98V539.1Zm20.11,0V520.41H118.11V539.1Zm20.12,0V520.41H138.23V539.1Zm20.11,0V520.41h-18.7V539.1Zm20.11,0V520.42H178.47V539.1Zm20.12,0V520.41h-18.7V539.1Zm20.12,0V520.41H218.69V539.1Zm20.11,0V520.41h-18.7V539.1Zm20.12,0V520.41h-18.7V539.1Zm20.12,0V520.41H279V539.1Zm20.11,0V520.41h-18.7V539.1Zm20.11,0V520.41H319.28V539.1Zm20.12,0V520.41h-18.7V539.1Zm20.12,0V520.41H359.5V539.1Zm20.11,0V520.41h-18.7V539.1Zm20.12,0V520.41h-18.7V539.1Zm20.11,0V520.41h-18.7V539.1Zm20.12,0V520.41H440V539.1Zm20.12,0V520.41H460.08V539.1Zm1.41,0h18.7V520.42H480.2V539.1Zm38.82,0V520.41h-18.7V539.1Zm20.11,0V520.41h-18.7V539.1Zm20.12,0V520.41H540.54V539.1Zm20.11,0V520.41h-18.7V539.1Zm1.42,0h18.7V520.42h-18.7V539.1Zm38.82,0V520.41H600.9V539.1Zm20.12,0V520.41H621V539.1Zm20.1,0V520.41h-18.7V539.1Zm20.12,0V520.41h-18.7V539.1Zm1.42,0h18.69V520.42H681.36V539.1Zm38.82,0V520.41H701.47V539.1Zm20.11,0V520.41h-18.7V539.1Zm20.12,0V520.41H741.7V539.1Zm1.41,0h18.7V520.42h-18.7V539.1ZM56.36,519V500.31H37.65V519Zm20.11,0V500.31H57.77V519Zm20.12,0V500.31H77.89V519ZM98,519h18.71V500.31H98V519Zm38.82,0V500.31H118.11V519Zm20.12,0V500.31H138.23V519Zm20.11,0V500.31h-18.7V519Zm20.11,0V500.31H178.47V519Zm20.13,0V500.31h-18.7V519Zm20.1,0V500.31h-18.7V519Zm20.12,0V500.31h-18.7V519Zm20.12,0V500.31h-18.7V519Zm20.12,0V500.31H279V519Zm20.11,0V500.31h-18.7V519ZM338,519V500.31H319.28V519Zm20.12,0V500.31h-18.7V519Zm20.12,0V500.31H359.5V519Zm20.11,0V500.31h-18.7V519Zm20.11,0V500.31H399.74V519Zm20.12,0V500.31h-18.7V519Zm20.12,0V500.31H440V519Zm20.12,0V500.31H460.08V519Zm20.11,0V500.31H480.2V519ZM519,519V500.31h-18.7V519Zm20.12,0V500.31h-18.7V519Zm20.12,0V500.31h-18.7V519Zm1.41,0h18.7V500.31h-18.7V519Zm38.82,0V500.31h-18.7V519Zm1.42,0h18.7V500.31H600.9V519Zm38.82,0V500.31H621V519Zm20.1,0V500.31h-18.7V519Zm1.42,0h18.7V500.31h-18.7V519Zm38.81,0V500.31H681.36V519Zm1.42,0h18.71V500.31H701.47V519Zm38.82,0V500.31h-18.7V519Zm1.41,0h18.71V500.31H741.7V519Zm38.82,0V500.31h-18.7V519ZM77.89,498.9h18.7V480.21H77.89V498.9Zm38.82,0V480.21H98V498.9Zm1.4,0h18.71V480.21H118.11V498.9Zm40.24,0h18.7V480.21h-18.7V498.9Zm58.93,0V480.21h-18.7V498.9Zm20.12,0V480.21H218.69V498.9Zm40.23,0V480.21h-18.7V498.9Zm40.23,0V480.21h-18.7V498.9Zm20.11,0V480.21H319.28V498.9Zm80.47,0V480.21h-18.7V498.9Zm1.41,0h18.7V480.21h-18.7V498.9Zm99.17,0V480.21h-18.7V498.9Zm1.41,0h18.7V480.21h-18.7V498.9Zm58.93,0V480.21h-18.7V498.9Zm40.24,0V480.21H600.9V498.9Zm1.41,0h18.71V480.21H621V498.9Zm58.93,0V480.21h-18.7V498.9Zm40.24,0V480.21H701.47V498.9Zm1.41,0h18.7V480.21h-18.7V498.9Zm38.82,0V480.21H741.7V498.9Zm-704,0V480.21H37.65V498.9Zm20.11,0V480.21H57.77V498.9Zm80.47,0V480.21H138.23V498.9Zm40.22,0V480.21H178.47V498.9Zm60.35,0V480.21h-18.7V498.9Zm40.24,0V480.21H279V498.9Zm60.34,0V480.21h-18.7V498.9Zm20.12,0V480.21H359.5V498.9Zm20.11,0V480.21h-18.7V498.9Zm60.35,0V480.21H440V498.9Zm20.12,0V480.21H460.08V498.9Zm20.11,0V480.21H480.2V498.9Zm60.35,0V480.21h-18.7V498.9Zm40.23,0V480.21h-18.7V498.9Zm60.34,0V480.21h-18.7V498.9Zm40.23,0V480.21H681.36V498.9Zm80.47,0V480.21h-18.7V498.9ZM56.36,478.79V460.1H37.65v18.69Zm20.11,0V460.1H57.77v18.69Zm20.12,0V460.1H77.89v18.69Zm20.12,0V460.1H98v18.69Zm20.11,0V460.1H118.11v18.69Zm20.12,0V460.1H138.23v18.69Zm20.11,0V460.1h-18.7v18.69Zm20.11,0V460.1H178.47v18.69Zm20.12,0V460.1h-18.7v18.69Zm20.12,0V460.1H218.69v18.69Zm20.11,0V460.1h-18.7v18.69Zm20.12,0V460.1h-18.7v18.69Zm20.12,0V460.1H279v18.69Zm20.11,0V460.1h-18.7v18.69Zm20.11,0V460.1H319.28v18.69Zm20.12,0V460.1h-18.7v18.69Zm20.12,0V460.1H359.5v18.69Zm20.11,0V460.1h-18.7v18.69Zm20.12,0V460.1h-18.7v18.69Zm20.11,0V460.1h-18.7v18.69Zm20.12,0V460.1H440v18.69Zm20.12,0V460.1H460.08v18.69Zm20.11,0V460.1H480.2v18.69Zm20.12,0V460.1h-18.7v18.69Zm20.11,0V460.1h-18.7v18.69Zm20.12,0V460.1h-18.7v18.69Zm20.11,0V460.1h-18.7v18.69Zm20.12,0V460.1h-18.7v18.69Zm20.12,0V460.1H600.9v18.69Zm20.12,0V460.1H621v18.69Zm20.1,0V460.1h-18.7v18.69Zm20.12,0V460.1h-18.7v18.69Zm20.11,0V460.1H681.36v18.69Zm20.13,0V460.1H701.47v18.69Zm20.11,0V460.1h-18.7v18.69Zm20.12,0V460.1H741.7v18.69Zm20.11,0V460.1h-18.7v18.69ZM56.36,458.69V440H37.65v18.7Zm20.11,0V440H57.77v18.69Zm20.12,0V440H77.89v18.7Zm20.12,0V440H98v18.7Zm20.11,0V440H118.11v18.7Zm20.12,0V440H138.23v18.69Zm20.11,0V440h-18.7v18.7Zm20.11,0V440H178.47v18.7Zm20.12,0V440h-18.7v18.7Zm20.12,0V440H218.69v18.7Zm20.11,0V440h-18.7v18.69Zm20.12,0V440h-18.7v18.7Zm20.12,0V440H279v18.7Zm20.11,0V440h-18.7v18.7Zm20.11,0V440H319.28v18.7Zm20.12,0V440h-18.7v18.69Zm20.12,0V440H359.5v18.7Zm20.11,0V440h-18.7v18.7Zm20.12,0V440h-18.7v18.7Zm20.11,0V440h-18.7v18.7Zm20.12,0V440H440v18.7Zm20.12,0V440H460.08v18.7Zm20.11,0V440H480.2v18.69Zm20.12,0V440h-18.7v18.7Zm20.11,0V440h-18.7v18.7Zm20.12,0V440H540.54v18.7Zm20.11,0V440h-18.7v18.7Zm20.12,0V440h-18.7v18.7Zm20.12,0V440H600.9v18.7Zm20.12,0V440H621v18.7Zm20.1,0V440h-18.7v18.69Zm20.12,0V440h-18.7v18.7Zm20.11,0V440H681.36v18.7Zm20.13,0V440H701.47v18.7Zm20.11,0V440h-18.7v18.7Zm20.12,0V440H741.7v18.69Zm20.11,0V440h-18.7v18.7ZM37.65,438.58H56.36V419.89H37.65v18.69Zm38.82,0V419.89H57.77v18.69Zm1.42,0h18.7V419.89H77.89v18.69Zm38.82,0V419.89H98v18.69Zm20.11,0V419.89H118.11v18.69Zm20.12,0V419.89H138.23v18.69Zm20.11,0V419.89h-18.7v18.69Zm1.42,0h18.69V419.89H178.47v18.69Zm38.81,0V419.89h-18.7v18.69Zm20.12,0V419.89H218.69v18.69Zm20.11,0V419.89h-18.7v18.69Zm20.12,0V419.89h-18.7v18.69Zm20.12,0V419.89H279v18.69Zm20.11,0V419.89h-18.7v18.69Zm20.11,0V419.89H319.28v18.69Zm40.24,0V419.89H359.5v18.69Zm20.11,0V419.89h-18.7v18.69Zm20.12,0V419.89h-18.7v18.69Zm20.11,0V419.89h-18.7v18.69Zm20.12,0V419.89H440v18.69Zm20.12,0V419.89H460.08v18.69Zm40.23,0V419.89h-18.7v18.69Zm20.11,0V419.89h-18.7v18.69Zm20.12,0V419.89h-18.7v18.69Zm20.11,0V419.89h-18.7v18.69Zm1.42,0h18.7V419.89h-18.7v18.69Zm38.82,0V419.89H600.9v18.69Zm20.12,0V419.89H621v18.69Zm20.1,0V419.89h-18.7v18.69Zm20.12,0V419.89h-18.7v18.69Zm1.42,0h18.69V419.89H681.36v18.69Zm38.82,0V419.89H701.47v18.69Zm20.11,0V419.89h-18.7v18.69Zm20.12,0V419.89H741.7v18.69Zm1.41,0h18.7V419.89h-18.7v18.69Zm-403.73,0V419.89h-18.7v18.69Zm140.81,0V419.89H480.2v18.69ZM56.36,418.48V399.79H37.65v18.69Zm20.11,0V399.79H57.77v18.69Zm20.12,0V399.79H77.89v18.69Zm20.12,0V399.79H98v18.69Zm20.11,0V399.79H118.11v18.69Zm20.12,0V399.79H138.23v18.69Zm20.11,0V399.79h-18.7v18.69Zm20.11,0V399.79H178.47v18.69Zm20.12,0V399.79h-18.7v18.69Zm20.12,0V399.79H218.69v18.69Zm20.11,0V399.79h-18.7v18.69Zm20.12,0V399.79h-18.7v18.69Zm20.12,0V399.79H279v18.69Zm20.11,0V399.79h-18.7v18.69Zm20.11,0V399.79H319.28v18.69Zm20.12,0V399.79h-18.7v18.69Zm20.12,0V399.79H359.5v18.69Zm20.11,0V399.79h-18.7v18.69Zm20.12,0V399.79h-18.7v18.69Zm20.11,0V399.79h-18.7v18.69Zm20.12,0V399.79H440v18.69Zm20.12,0V399.79H460.08v18.69Zm20.11,0V399.79H480.2v18.69Zm20.12,0V399.79h-18.7v18.69Zm20.11,0V399.79h-18.7v18.69Zm20.12,0V399.79h-18.7v18.69Zm20.11,0V399.79h-18.7v18.69Zm20.12,0V399.79h-18.7v18.69Zm20.12,0V399.79H600.9v18.69Zm20.12,0V399.79H621v18.69Zm20.1,0V399.79h-18.7v18.69Zm20.12,0V399.79h-18.7v18.69Zm20.11,0V399.79H681.36v18.69Zm20.13,0V399.79H701.47v18.69Zm20.11,0V399.79h-18.7v18.69Zm20.12,0V399.79H741.7v18.69Zm20.11,0V399.79h-18.7v18.69ZM56.36,398.38V379.69H37.65v18.69Zm20.11,0V379.69H57.77v18.69Zm20.12,0V379.69H77.89v18.69Zm20.12,0V379.69H98v18.69Zm20.11,0V379.69H118.11v18.69Zm20.12,0V379.69H138.23v18.69Zm20.11,0V379.69h-18.7v18.69Zm20.11,0V379.69H178.47v18.69Zm20.12,0V379.69h-18.7v18.69Zm20.12,0V379.69H218.69v18.69Zm20.11,0V379.69h-18.7v18.69Zm20.12,0V379.69h-18.7v18.69Zm20.12,0V379.69H279v18.69Zm20.11,0V379.69h-18.7v18.69Zm20.11,0V379.69H319.28v18.69Zm20.12,0V379.69h-18.7v18.69Zm20.12,0V379.69H359.5v18.69Zm20.11,0V379.69h-18.7v18.69Zm20.12,0V379.69h-18.7v18.69Zm20.11,0V379.69h-18.7v18.69Zm20.12,0V379.69H440v18.69Zm20.12,0V379.69H460.08v18.69Zm20.11,0V379.69H480.2v18.69Zm20.12,0V379.69h-18.7v18.69Zm20.11,0V379.69h-18.7v18.69Zm20.12,0V379.69h-18.7v18.69Zm20.11,0V379.69h-18.7v18.69Zm20.12,0V379.69h-18.7v18.69Zm20.12,0V379.69H600.9v18.69Zm20.12,0V379.69H621v18.69Zm20.1,0V379.69h-18.7v18.69Zm20.12,0V379.69h-18.7v18.69Zm20.11,0V379.69H681.36v18.69Zm20.13,0V379.69H701.47v18.69Zm20.11,0V379.69h-18.7v18.69Zm20.12,0V379.69H741.7v18.69Zm20.11,0V379.69h-18.7v18.69ZM56.36,378.28v-18.7H37.65v18.7Zm20.11,0v-18.7H57.77v18.7Zm20.12,0v-18.7H77.89v18.68Zm1.41,0h18.71V359.59H98v18.7Zm38.82,0v-18.7H118.11v18.68Zm20.12,0v-18.7H138.23v18.7Zm20.11,0v-18.7h-18.7v18.68Zm20.11,0v-18.7H178.47v18.7Zm1.42,0h18.7V359.58H198.58v18.7Zm38.81,0v-18.7h-18.7v18.68Zm20.12,0v-18.7h-18.7v18.7Zm20.12,0v-18.7h-18.7v18.68Zm20.12,0v-18.7H279v18.7Zm20.11,0v-18.7h-18.7v18.7Zm40.23,0v-18.7h-18.7v18.7Zm20.12,0v-18.7H359.5v18.7Zm20.11,0v-18.7h-18.7v18.7Zm20.11,0v-18.7H399.74v18.7Zm20.12,0v-18.7h-18.7v18.7Zm20.12,0v-18.7H440v18.7Zm20.12,0v-18.7H460.08v18.7Zm20.11,0v-18.7H480.2v18.7Zm40.23,0v-18.7h-18.7v18.7Zm20.12,0v-18.7h-18.7v18.7Zm1.41,0h18.7V359.59h-18.7v18.7Zm38.82,0v-18.7h-18.7v18.7Zm1.42,0h18.7V359.59H600.9v18.7Zm38.82,0v-18.7H621v18.69Zm20.1,0v-18.7h-18.7v18.7Zm1.42,0h18.7V359.59h-18.7v18.7Zm38.81,0v-18.7H681.36v18.7Zm1.42,0h18.71V359.59H701.47v18.7Zm38.82,0v-18.7h-18.7v18.68Zm1.41,0h18.71V359.59H741.7v18.7Zm38.82,0v-18.7h-18.7v18.7Zm-442.55,0V359.58H319.28v18.69Zm181,0V359.58H500.32v18.69ZM37.65,358.17H56.36V339.48H37.65v18.69Zm38.82,0V339.48H57.77v18.69Zm1.42,0h18.7V339.48H77.89v18.69Zm38.82,0V339.48H98v18.69Zm20.11,0V339.48H118.11v18.69Zm20.12,0V339.48H138.23v18.69Zm20.11,0V339.48h-18.7v18.69Zm1.42,0h18.69V339.48H178.47v18.69Zm38.81,0V339.48h-18.7v18.69Zm20.12,0V339.48H218.69v18.69Zm20.11,0V339.48h-18.7v18.69Zm20.12,0V339.48h-18.7v18.69Zm20.12,0V339.48H279v18.69Zm20.11,0V339.48h-18.7v18.69Zm20.11,0V339.48H319.28v18.69Zm20.12,0V339.48h-18.7v18.69Zm20.12,0V339.48H359.5v18.69Zm20.11,0V339.48h-18.7v18.69Zm20.12,0V339.48h-18.7v18.69Zm20.11,0V339.48h-18.7v18.69Zm20.12,0V339.48H440v18.69Zm20.12,0V339.48H460.08v18.69Zm1.41,0h18.7V339.48H480.2v18.69Zm38.82,0V339.48h-18.7v18.69Zm20.11,0V339.48h-18.7v18.69Zm20.12,0V339.48H540.54v18.69Zm20.11,0V339.48h-18.7v18.69Zm1.42,0h18.7V339.48h-18.7v18.69Zm38.82,0V339.48H600.9v18.69Zm20.12,0V339.48H621v18.69Zm20.1,0V339.48h-18.7v18.69Zm20.12,0V339.48h-18.7v18.69Zm1.42,0h18.69V339.48H681.36v18.69Zm38.82,0V339.48H701.47v18.69Zm20.11,0V339.48h-18.7v18.69Zm20.12,0V339.48H741.7v18.69Zm1.41,0h18.7V339.48h-18.7v18.69ZM56.36,338.07V319.38H37.65v18.69Zm1.41,0h18.7V319.38H57.77v18.69Zm38.82,0V319.38H77.89v18.69Zm41.64,0h18.71V319.38H138.23v18.69Zm58.93,0V319.38H178.47v18.69Zm41.65,0h18.7V319.38h-18.7v18.69Zm119.28,0V319.38h-18.7v18.69Zm140.81,0V319.38H480.2v18.69Zm100.58,0V319.38h-18.7v18.69Zm41.64,0h18.7V319.38h-18.7v18.69Zm58.93,0V319.38H681.36v18.69Zm41.65,0h18.71V319.38H741.7v18.69Zm38.82,0V319.38h-18.7v18.69Zm-663.81,0V319.38H98v18.69Zm20.11,0V319.38H118.11v18.69Zm40.23,0V319.38h-18.7v18.69Zm40.23,0V319.38h-18.7v18.69Zm20.12,0V319.38H218.69v18.69Zm40.23,0V319.38h-18.7v18.69Zm20.12,0V319.38H279v18.69Zm20.11,0V319.38h-18.7v18.69Zm20.11,0V319.38H319.28v18.69Zm40.24,0V319.38H359.5v18.69Zm20.11,0V319.38h-18.7v18.69Zm20.12,0V319.38h-18.7v18.69Zm20.11,0V319.38h-18.7v18.69Zm20.12,0V319.38H440v18.69Zm20.12,0V319.38H460.08v18.69Zm40.23,0V319.38h-18.7v18.69Zm20.11,0V319.38h-18.7v18.69Zm20.12,0V319.38h-18.7v18.69Zm20.11,0V319.38h-18.7v18.69Zm40.24,0V319.38H600.9v18.69Zm20.12,0V319.38H621v18.69Zm40.22,0V319.38h-18.7v18.69Zm40.24,0V319.38H701.47v18.69Zm20.11,0V319.38h-18.7v18.69ZM77.89,318h18.7V299.27H77.89V318Zm38.82,0V299.27H98V318Zm1.4,0h18.71V299.27H118.11V318Zm40.24,0h18.7V299.27h-18.7V318Zm58.93,0V299.27h-18.7V318Zm1.41,0h18.7V299.27H218.69V318Zm40.24,0h18.7V299.27h-18.7V318Zm58.93,0V299.27h-18.7V318ZM338,318V299.27H319.28V318Zm80.47,0V299.27h-18.7V318Zm1.41,0h18.7V299.27h-18.7V318ZM519,318V299.27h-18.7V318Zm1.41,0h18.7V299.27h-18.7V318Zm58.93,0V299.27h-18.7V318Zm40.24,0V299.27H600.9V318Zm1.41,0h18.71V299.27H621V318Zm58.93,0V299.27h-18.7V318Zm40.24,0V299.27H701.47V318Zm1.41,0h18.7V299.27h-18.7V318Zm38.82,0V299.27H741.7V318Zm-704,0V299.27H37.65V318Zm20.11,0V299.27H57.77V318Zm80.47,0V299.27H138.23V318Zm40.22,0V299.27H178.47V318Zm60.35,0V299.27h-18.7V318Zm40.24,0V299.27H279V318Zm60.34,0V299.27h-18.7V318Zm20.12,0V299.27H359.5V318Zm20.11,0V299.27h-18.7V318Zm60.35,0V299.27H440V318Zm20.12,0V299.27H460.08V318Zm20.11,0V299.27H480.2V318Zm60.35,0V299.27h-18.7V318Zm40.23,0V299.27h-18.7V318Zm60.34,0V299.27h-18.7V318Zm40.23,0V299.27H681.36V318Zm80.47,0V299.27h-18.7V318ZM56.36,297.86V279.18H37.65v18.68Zm1.41,0h18.7V279.18H57.77v18.68Zm38.82,0V279.18H77.89v18.68Zm41.64,0h18.71V279.18H138.23v18.68Zm58.93,0V279.18H178.47v18.68Zm41.65,0h18.7V279.18h-18.7v18.68Zm58.94,0V279.18H279v18.68Zm60.34,0V279.18h-18.7v18.68Zm140.81,0V279.18H480.2v18.68Zm41.65,0h18.7V279.18H540.54v18.68Zm58.93,0V279.18h-18.7v18.68Zm41.64,0h18.7V279.18h-18.7v18.68Zm58.93,0V279.18h-18.7v18.68Zm41.65,0h18.71V279.18H741.7v18.68Zm38.82,0V279.18h-18.7v18.68Zm-663.81,0V279.18H98v18.68Zm20.11,0V279.18H118.11v18.68Zm40.23,0V279.18h-18.7v18.68Zm40.23,0V279.18h-18.7v18.68Zm20.12,0V279.18H218.69v18.68Zm40.23,0V279.18h-18.7v18.68Zm40.23,0V279.18h-18.7v18.68Zm20.11,0V279.18H319.28v18.68Zm40.24,0V279.18H359.5v18.68Zm20.11,0V279.18h-18.7v18.68Zm20.12,0V279.18h-18.7v18.68Zm20.11,0V279.18h-18.7v18.68Zm20.12,0V279.18H440v18.68Zm20.12,0V279.18H460.08v18.68Zm40.23,0V279.18h-18.7v18.68Zm20.11,0V279.18h-18.7v18.68Zm40.23,0V279.18h-18.7v18.68Zm40.24,0V279.18H600.9v18.68Zm20.12,0V279.18H621v18.68Zm40.22,0V279.18h-18.7v18.68Zm40.24,0V279.18H701.47v18.68Zm20.11,0V279.18h-18.7v18.68ZM56.36,277.76V259.07H37.65v18.69Zm20.11,0V259.07H57.77v18.69Zm20.12,0V259.07H77.89v18.69Zm1.41,0h18.71V259.07H98v18.69Zm38.82,0V259.07H118.11v18.69Zm20.12,0V259.07H138.23v18.69Zm20.11,0V259.07h-18.7v18.69Zm20.11,0V259.07H178.47v18.69Zm1.42,0h18.7V259.07H198.58v18.69Zm58.93,0V259.07h-18.7v18.69Zm40.24,0V259.07H279v18.69Zm1.41,0h18.7V259.07h-18.7v18.69Zm58.93,0V259.07h-18.7v18.69Zm20.12,0V259.07H359.5v18.69Zm20.11,0V259.07h-18.7v18.69Zm1.42,0h18.7V259.07H399.74v18.69Zm38.81,0V259.07h-18.7v18.69Zm20.12,0V259.07H440v18.69Zm20.12,0V259.07H460.08v18.69Zm20.11,0V259.07H480.2v18.69Zm40.23,0V259.07h-18.7v18.69Zm20.12,0V259.07h-18.7v18.69Zm40.23,0V259.07h-18.7v18.69Zm40.24,0V259.07H621v18.69Zm20.1,0V259.07h-18.7v18.69Zm1.42,0h18.7V259.07h-18.7v18.69Zm38.81,0V259.07H681.36v18.69Zm1.42,0h18.71V259.07H701.47v18.69Zm38.82,0V259.07H721.58v18.69Zm1.41,0h18.71V259.07H741.7v18.69Zm38.82,0V259.07h-18.7v18.69Zm-543.12,0V259.07h-18.7v18.69Zm40.23,0V259.07h-18.7v18.69Zm60.34,0V259.07H319.28v18.69Zm181,0V259.07H500.32v18.69Zm60.34,0V259.07h-18.7v18.69Zm40.24,0V259.07H600.9v18.69ZM37.65,257.65H56.36V239H37.65v18.69Zm38.82,0V239H57.77v18.69Zm1.42,0h18.7V239H77.89v18.69Zm38.82,0V239H98v18.69Zm20.11,0V239H118.11v18.69Zm20.12,0V239H138.23v18.69Zm20.11,0V239h-18.7v18.69Zm1.42,0h18.69V239H178.47v18.69Zm38.81,0V239h-18.7v18.69Zm20.12,0V239H218.69v18.69Zm20.11,0V239h-18.7v18.69Zm20.12,0V239h-18.7v18.69Zm1.41,0h18.71V239H279v18.69Zm38.82,0V239h-18.7v18.69Zm20.11,0V239H319.28v18.69Zm40.24,0V239H359.5v18.69Zm20.11,0V239h-18.7v18.69Zm20.12,0V239h-18.7v18.69Zm20.11,0V239h-18.7v18.69Zm20.12,0V239H440v18.69Zm20.12,0V239H460.08v18.69Zm40.23,0V239h-18.7v18.69Zm20.11,0V239h-18.7v18.69Zm20.12,0V239H540.54v18.69Zm20.11,0V239h-18.7v18.69Zm1.42,0h18.7V239h-18.7v18.69Zm38.82,0V239H600.9v18.69Zm20.12,0V239H621v18.69Zm20.1,0V239h-18.7v18.69Zm20.12,0V239h-18.7v18.69Zm1.42,0h18.69V239H681.36v18.69Zm38.82,0V239H701.47v18.69Zm20.11,0V239h-18.7v18.69Zm20.12,0V239H741.7v18.69Zm1.41,0h18.7V239h-18.7v18.69Zm-403.73,0V239h-18.7v18.69Zm140.81,0V239H480.2v18.69ZM56.36,237.56v-18.7H37.65v18.69Zm1.41,0h18.7V218.86H57.77v18.7Zm38.82,0v-18.7H77.89v18.69Zm41.64,0h18.71V218.86H138.23v18.7Zm100.58,0h18.7V218.86h-18.7v18.7Zm100.58,0h18.7V218.86h-18.7v18.7Zm159.51,0v-18.7H480.2v18.69Zm100.58,0v-18.7h-18.7v18.69Zm100.57,0v-18.7H681.36v18.69Zm41.65,0h18.71V218.86H741.7v18.7Zm38.82,0v-18.7h-18.7v18.69Zm-663.81,0V218.86H98v18.69Zm20.11,0V218.86H118.11v18.69Zm40.23,0V218.86h-18.7v18.69Zm20.11,0V218.86H178.47v18.69Zm20.12,0V218.86h-18.7v18.69Zm20.12,0V218.86H218.69v18.69Zm40.23,0V218.86h-18.7v18.69Zm20.12,0V218.86H279v18.69Zm20.11,0V218.86h-18.7v18.69Zm20.11,0V218.86H319.28v18.69Zm40.24,0V218.86H359.5v18.69Zm20.11,0V218.86h-18.7v18.69Zm20.12,0V218.86h-18.7v18.69Zm20.11,0V218.86h-18.7v18.69Zm20.12,0V218.86H440v18.69Zm20.12,0V218.86H460.08v18.69Zm40.23,0V218.86h-18.7v18.69Zm20.11,0V218.86h-18.7v18.69Zm20.12,0V218.86h-18.7v18.69Zm20.11,0V218.86h-18.7v18.69Zm40.24,0V218.86H600.9v18.69Zm20.12,0V218.86H621v18.69Zm20.1,0V218.86h-18.7v18.69Zm20.12,0V218.86h-18.7v18.69Zm40.24,0V218.86H701.47v18.69Zm20.11,0V218.86h-18.7v18.69Zm-662.4-20.1h18.7V198.76H77.89v18.69Zm38.82,0V198.76H98v18.69Zm1.4,0h18.71V198.76H118.11v18.69Zm40.24,0h18.7V198.76h-18.7v18.69Zm58.93,0V198.76h-18.7v18.69Zm1.41,0h18.7V198.76H218.69v18.69Zm40.24,0h18.7V198.76h-18.7v18.69Zm60.35,0H338V198.76H319.28v18.69Zm199.74,0V198.76h-18.7v18.69Zm60.34,0V198.76h-18.7v18.69Zm40.24,0V198.76H600.9v18.69Zm1.41,0h18.71V198.76H621v18.69Zm58.93,0V198.76h-18.7v18.69Zm40.24,0V198.76H701.47v18.69Zm1.41,0h18.7V198.76h-18.7v18.69Zm38.82,0V198.76H741.7v18.69Zm-704,0V198.76H37.65v18.69Zm20.11,0V198.76H57.77v18.69Zm80.47,0V198.76H138.23v18.69Zm40.22,0V198.76H178.47v18.69Zm60.35,0V198.76h-18.7v18.69Zm40.24,0V198.76H279v18.69Zm20.11,0V198.76h-18.7v18.69Zm40.23,0V198.76h-18.7v18.69Zm20.12,0V198.76H359.5v18.69Zm20.11,0V198.76h-18.7v18.69Zm20.11,0V198.76h-18.7v18.69Zm20.12,0V198.76h-18.7v18.69Zm20.12,0V198.76H440v18.69Zm20.12,0V198.76H460.08v18.69Zm20.11,0V198.76H480.2v18.69Zm40.23,0V198.76h-18.7v18.69Zm20.12,0V198.76h-18.7v18.69Zm40.23,0V198.76h-18.7v18.69Zm60.34,0V198.76h-18.7v18.69Zm40.23,0V198.76H681.36v18.69Zm80.47,0V198.76h-18.7v18.69ZM56.36,197.35V178.66H37.65v18.69Zm20.11,0V178.66H57.77v18.7Zm20.12,0V178.66H77.89v18.69Zm20.12,0V178.66H98v18.69Zm20.11,0V178.66H118.11v18.69Zm20.12,0V178.66H138.23v18.7Zm20.11,0V178.66h-18.7v18.69Zm20.11,0V178.66H178.47v18.69Zm20.12,0V178.66h-18.7v18.69Zm20.12,0V178.66H218.69v18.69Zm20.11,0V178.66h-18.7v18.7Zm20.12,0V178.66h-18.7v18.69Zm20.12,0V178.66H279v18.69Zm20.11,0V178.66h-18.7v18.69Zm20.11,0V178.66H319.28v18.69Zm20.12,0V178.66h-18.7v18.69Zm20.12,0V178.66H359.5v18.69Zm20.11,0V178.66h-18.7v18.69Zm20.12,0V178.66h-18.7v18.69Zm20.11,0V178.66h-18.7v18.69Zm20.12,0V178.66H440v18.69Zm20.12,0V178.66H460.08v18.69Zm20.11,0V178.66H480.2v18.69Zm20.12,0V178.66h-18.7v18.69Zm20.11,0V178.66h-18.7v18.69Zm20.12,0V178.66H540.54v18.69Zm20.11,0V178.66h-18.7v18.69Zm20.12,0v-18.7h-18.7v18.69Zm20.12,0V178.66H600.9v18.69Zm20.12,0V178.66H621v18.69Zm20.1,0V178.66h-18.7v18.69Zm20.12,0V178.66h-18.7v18.69Zm20.11,0v-18.7H681.36v18.69Zm20.13,0V178.66H701.47v18.69Zm20.11,0V178.66h-18.7v18.69Zm20.12,0V178.66H741.7v18.69Zm20.11,0v-18.7h-18.7v18.69ZM56.36,177.24V158.55H37.65v18.69Zm20.11,0V158.55H57.77v18.69Zm20.12,0V158.55H77.89v18.69Zm20.12,0V158.55H98v18.69Zm20.11,0V158.55H118.11v18.69Zm20.12,0V158.55H138.23v18.69Zm20.11,0V158.55h-18.7v18.69Zm20.11,0V158.55H178.47v18.69Zm20.12,0V158.55H198.58v18.69Zm20.12,0V158.55h-18.7v18.69Zm20.11,0V158.55h-18.7v18.69Zm20.12,0V158.55h-18.7v18.69Zm20.12,0V158.55H279v18.69Zm20.11,0V158.55h-18.7v18.69Zm20.11,0V158.55H319.28v18.69Zm20.12,0V158.55h-18.7v18.69Zm20.12,0V158.55H359.5v18.69Zm20.11,0V158.55h-18.7v18.69Zm20.12,0V158.55H399.74v18.69Zm20.11,0V158.55h-18.7v18.69Zm20.12,0V158.55H440v18.69Zm20.12,0V158.55H460.08v18.69Zm20.11,0V158.55H480.2v18.69Zm20.12,0V158.55H500.32v18.69Zm20.11,0V158.55h-18.7v18.69Zm20.12,0V158.55h-18.7v18.69Zm20.11,0V158.55h-18.7v18.69Zm20.12,0V158.55h-18.7v18.69Zm20.12,0V158.55H600.9v18.69Zm20.12,0V158.55H621v18.69Zm20.1,0V158.55h-18.7v18.69Zm20.12,0V158.55h-18.7v18.69Zm20.11,0V158.55H681.36v18.69Zm20.13,0V158.55H701.47v18.69Zm20.11,0V158.55H721.58v18.69Zm20.12,0V158.55H741.7v18.69Zm20.11,0V158.55h-18.7v18.69ZM56.36,157.14V138.45H37.65v18.69Zm20.11,0V138.45H57.77v18.69Zm20.12,0V138.45H77.89v18.69Zm20.12,0V138.45H98v18.69Zm20.11,0V138.45H118.11v18.69Zm20.12,0V138.45H138.23v18.69Zm20.11,0V138.45h-18.7v18.69Zm20.11,0V138.45H178.47v18.69Zm20.12,0V138.45h-18.7v18.69Zm20.12,0V138.45H218.69v18.69Zm20.11,0V138.45h-18.7v18.69Zm20.12,0V138.45h-18.7v18.69Zm20.12,0V138.45H279v18.69Zm20.11,0V138.45h-18.7v18.69Zm20.11,0V138.45H319.28v18.69Zm20.12,0V138.45h-18.7v18.69Zm20.12,0V138.45H359.5v18.69Zm20.11,0V138.45h-18.7v18.69Zm20.12,0V138.45h-18.7v18.69Zm20.11,0V138.45h-18.7v18.69Zm20.12,0V138.45H440v18.69Zm20.12,0V138.45H460.08v18.69Zm20.11,0V138.45H480.2v18.69Zm20.12,0V138.45h-18.7v18.69Zm20.11,0V138.45h-18.7v18.69Zm20.12,0V138.45H540.54v18.69Zm20.11,0V138.45h-18.7v18.69Zm20.12,0V138.45h-18.7v18.69Zm20.12,0V138.45H600.9v18.69Zm20.12,0V138.45H621v18.69Zm20.1,0V138.45h-18.7v18.69Zm20.12,0V138.45h-18.7v18.69Zm20.11,0V138.45h-18.7v18.69Zm20.13,0V138.45H701.47v18.69Zm20.11,0V138.45h-18.7v18.69Zm20.12,0V138.45H741.7v18.69Zm20.11,0V138.45h-18.7v18.69ZM57.77,137h18.7v-18.7H57.77V137Zm80.46,0h18.71v-18.7H138.23V137Zm100.58,0h18.7v-18.7h-18.7V137Zm360.67,0v-18.7h-18.7V137Zm100.57,0v-18.7H681.36V137Zm80.47,0v-18.7h-18.7V137ZM56.36,137v-18.7H37.65V137Zm40.23,0v-18.7H77.89V137Zm20.12,0v-18.7H98V137Zm20.11,0v-18.7H118.11V137Zm40.23,0v-18.7h-18.7V137Zm20.11,0v-18.7H178.47V137Zm20.12,0v-18.7h-18.7V137Zm20.12,0v-18.7H218.69V137Zm40.23,0v-18.7h-18.7V137Zm20.12,0v-18.7H279V137Zm20.11,0v-18.7h-18.7V137ZM338,137v-18.7H319.28V137Zm20.12,0v-18.7h-18.7V137Zm20.12,0v-18.7H359.5V137Zm20.11,0v-18.7h-18.7V137Zm20.12,0v-18.7h-18.7V137Zm20.11,0v-18.7h-18.7V137Zm20.12,0v-18.7H440V137Zm20.12,0v-18.7H460.08V137Zm20.11,0v-18.7H480.2V137ZM519,137v-18.7h-18.7V137Zm20.11,0v-18.7h-18.7V137Zm20.12,0v-18.7h-18.7V137Zm20.11,0v-18.7h-18.7V137Zm40.24,0v-18.7H600.9V137Zm20.12,0v-18.7H621V137Zm20.1,0v-18.7h-18.7V137Zm20.12,0v-18.7h-18.7V137Zm40.24,0v-18.7H701.47V137Zm20.11,0v-18.7h-18.7V137Zm20.12,0v-18.7H741.7V137ZM77.89,116.93h18.7V98.24H77.89v18.69Zm38.82,0V98.24H98v18.69Zm1.4,0h18.71V98.24H118.11v18.69Zm40.24,0h18.7V98.24h-18.7v18.69Zm60.34,0h18.7V98.24H218.69v18.69Zm40.24,0h18.7V98.24h-18.7v18.69Zm320.43,0V98.24h-18.7v18.69Zm40.24,0V98.24H600.9v18.69Zm60.34,0V98.24h-18.7v18.69Zm40.24,0V98.24H701.47v18.69Zm1.41,0h18.7V98.24h-18.7v18.69Zm38.82,0V98.24H741.7v18.69Zm-704,0V98.24H37.65v18.69Zm20.11,0V98.24H57.77v18.69Zm80.47,0V98.24H138.23v18.69Zm40.22,0V98.24H178.47v18.69Zm20.13,0V98.24h-18.7v18.69Zm40.22,0V98.24h-18.7v18.69Zm40.24,0V98.24H279v18.69Zm20.11,0V98.24h-18.7v18.69Zm20.11,0V98.24H319.28v18.69Zm20.12,0V98.24h-18.7v18.69Zm20.12,0V98.24H359.5v18.69Zm20.11,0V98.24h-18.7v18.69Zm20.11,0V98.24h-18.7v18.69Zm20.12,0V98.24h-18.7v18.69Zm20.12,0V98.24H440v18.69Zm20.12,0V98.24H460.08v18.69Zm20.11,0V98.24H480.2v18.69Zm20.11,0V98.24h-18.7v18.69Zm20.12,0V98.24h-18.7v18.69Zm20.12,0V98.24H540.54v18.69Zm40.23,0V98.24h-18.7v18.69Zm40.24,0V98.24H621v18.69Zm20.1,0V98.24h-18.7v18.69Zm40.23,0V98.24h-18.7v18.69Zm80.47,0V98.24h-18.7v18.69ZM56.36,96.82V78.14H37.65V96.82Zm20.11,0V78.14H57.77V96.82Zm20.12,0V78.14H77.89V96.82Zm20.12,0V78.14H98V96.82Zm20.11,0V78.14H118.11V96.82Zm20.12,0V78.14H138.23V96.82Zm20.11,0V78.14h-18.7V96.82Zm20.11,0V78.14H178.47V96.82Zm20.12,0V78.14H198.58V96.82Zm20.12,0V78.14h-18.7V96.82Zm20.11,0V78.14h-18.7V96.82Zm20.12,0V78.14h-18.7V96.82Zm20.12,0V78.14H279V96.82Zm20.11,0V78.14h-18.7V96.82Zm20.11,0V78.14H319.28V96.82Zm20.12,0V78.14h-18.7V96.82Zm20.12,0V78.14H359.5V96.82Zm20.11,0V78.14h-18.7V96.82Zm20.12,0V78.14H399.74V96.82Zm20.11,0V78.14h-18.7V96.82Zm20.12,0V78.14H440V96.82Zm20.12,0V78.14H460.08V96.82Zm20.11,0V78.14H480.2V96.82Zm20.12,0V78.14H500.32V96.82Zm20.11,0V78.14h-18.7V96.82Zm20.12,0V78.14h-18.7V96.82Zm20.11,0V78.14h-18.7V96.82Zm20.12,0V78.14h-18.7V96.82Zm20.12,0V78.14H600.9V96.82Zm20.12,0V78.14H621V96.82Zm20.1,0V78.14h-18.7V96.82Zm20.12,0V78.14h-18.7V96.82Zm20.11,0V78.14H681.36V96.82Zm20.13,0V78.14H701.47V96.82Zm20.11,0V78.14H721.58V96.82Zm20.12,0V78.14H741.7V96.82Zm20.11,0V78.14h-18.7V96.82ZM77.89,76.73h18.7V58H77.89v18.7Zm38.82,0V58H98V76.72Zm1.4,0h18.71V58H118.11v18.7Zm40.24,0h18.7V58h-18.7v18.7Zm60.34,0h18.7V58H218.69v18.7Zm40.24,0h18.7V58h-18.7v18.7Zm320.43,0V58h-18.7V76.72Zm40.24,0V58H600.9V76.72Zm60.34,0V58h-18.7V76.72Zm40.24,0V58H701.47V76.72Zm1.41,0h18.7V58h-18.7v18.7Zm38.82,0V58H741.7V76.72Zm-704,0V58H37.65V76.72Zm20.11,0V58H57.77V76.72Zm80.47,0V58H138.23V76.72Zm40.22,0V58H178.47V76.72Zm20.13,0V58h-18.7V76.72Zm40.22,0V58h-18.7V76.72Zm40.24,0V58H279V76.72Zm20.11,0V58h-18.7V76.72Zm20.11,0V58H319.28V76.72Zm20.12,0V58h-18.7V76.72Zm20.12,0V58H359.5V76.72Zm20.11,0V58h-18.7V76.72Zm20.11,0V58h-18.7V76.72Zm20.12,0V58h-18.7V76.72Zm20.12,0V58H440V76.72Zm20.12,0V58H460.08V76.72Zm20.11,0V58H480.2V76.72Zm20.11,0V58h-18.7V76.72Zm20.12,0V58h-18.7V76.72Zm20.12,0V58h-18.7V76.72Zm40.23,0V58h-18.7V76.72Zm40.24,0V58H621V76.72Zm20.1,0V58h-18.7V76.72Zm40.23,0V58H681.36V76.72Zm80.47,0V58h-18.7V76.72ZM56.36,56.62V37.93H37.65V56.62Zm1.41,0h18.7V37.93H57.77V56.62Zm38.82,0V37.93H77.89V56.62Zm41.64,0h18.71V37.93H138.23V56.62Zm100.58,0h18.7V37.93h-18.7V56.62Zm360.67,0V37.93h-18.7V56.62Zm100.57,0V37.93H681.36V56.62Zm41.65,0h18.71V37.93H741.7V56.62Zm38.82,0V37.93h-18.7V56.62Zm-663.81,0V37.93H98V56.62Zm20.11,0V37.93H118.11V56.62Zm40.23,0V37.93h-18.7V56.62Zm20.11,0V37.93H178.47V56.62Zm20.12,0V37.93h-18.7V56.62Zm20.12,0V37.93H218.69V56.62Zm40.23,0V37.93h-18.7V56.62Zm20.12,0V37.93H279V56.62Zm20.11,0V37.93h-18.7V56.62Zm20.11,0V37.93H319.28V56.62Zm20.12,0V37.93h-18.7V56.62Zm20.12,0V37.93H359.5V56.62Zm20.11,0V37.93h-18.7V56.62Zm20.12,0V37.93h-18.7V56.62Zm20.11,0V37.93h-18.7V56.62Zm20.12,0V37.93H440V56.62Zm20.12,0V37.93H460.08V56.62Zm20.11,0V37.93H480.2V56.62Zm20.12,0V37.93h-18.7V56.62Zm20.11,0V37.93h-18.7V56.62Zm20.12,0V37.93h-18.7V56.62Zm20.11,0V37.93h-18.7V56.62Zm40.24,0V37.93H600.9V56.62Zm20.12,0V37.93H621V56.62Zm20.1,0V37.93h-18.7V56.62Zm20.12,0V37.93h-18.7V56.62Zm40.24,0V37.93H701.47V56.62Zm20.11,0V37.93h-18.7V56.62ZM77.89,36.52h18.7V17.83H77.89V36.52Zm38.82,0V17.83H98V36.52Zm1.4,0h18.71V17.83H118.11V36.52Zm40.24,0h18.7V17.83h-18.7V36.52Zm60.34,0h18.7V17.83h-18.7V36.52Zm40.24,0h18.7V17.83h-18.7V36.52Zm320.43,0V17.83h-18.7V36.52Zm40.24,0V17.83H600.9V36.52Zm60.34,0V17.83h-18.7V36.52Zm40.24,0V17.83H701.47V36.52Zm1.41,0h18.7V17.83h-18.7V36.52Zm38.82,0V17.83H741.7V36.52Zm-704,0V17.83H37.65V36.52Zm20.11,0V17.83H57.77V36.52Zm80.47,0V17.83H138.23V36.52Zm40.22,0V17.83H178.47V36.52Zm20.13,0V17.83H198.58V36.52Zm40.22,0V17.83h-18.7V36.52Zm40.24,0V17.83H279V36.52Zm20.11,0V17.83h-18.7V36.52Zm20.11,0V17.83H319.28V36.52Zm20.12,0V17.83h-18.7V36.52Zm20.12,0V17.83H359.5V36.52Zm20.11,0V17.83h-18.7V36.52Zm20.11,0V17.83H399.74V36.52Zm20.12,0V17.83h-18.7V36.52Zm20.12,0V17.83H440V36.52Zm20.12,0V17.83H460.08V36.52Zm20.11,0V17.83H480.2V36.52Zm20.11,0V17.83H500.32V36.52Zm20.12,0V17.83h-18.7V36.52Zm20.12,0V17.83h-18.7V36.52Zm40.23,0V17.83h-18.7V36.52Zm40.24,0V17.83H621V36.52Zm20.1,0V17.83h-18.7V36.52Zm40.23,0V17.83H681.36V36.52Zm80.47,0V17.83h-18.7V36.52Z"/><path class="cls-3" d="M0,800V0H800V800Zm783.05-17V17H17v766.1Z"/></g><g id="furniture"><g id="golgol_table2"><path class="cls-4" d="M497.88,479.87A12.91,12.91,0,1,1,485,492.78a12.92,12.92,0,0,1,12.91-12.91Z"/><path class="cls-4" d="M497,502.31a12.91,12.91,0,1,1-12.91,12.91A12.92,12.92,0,0,1,497,502.31Z"/><path class="cls-4" d="M511.43,517.14a9.07,9.07,0,1,1-9.06,9.06,9.06,9.06,0,0,1,9.06-9.06Z"/><path class="cls-4" d="M513.71,474.08a9.07,9.07,0,1,1-9.06,9.07,9.07,9.07,0,0,1,9.06-9.07Z"/><path class="cls-4" d="M531,478.93a12.91,12.91,0,1,1-12.91,12.91A12.91,12.91,0,0,1,531,478.93Z"/><path class="cls-4" d="M526.81,513.73a11.06,11.06,0,1,1-11.06,11,11.06,11.06,0,0,1,11.06-11Z"/><path class="cls-4" d="M535.67,499.75a9.06,9.06,0,1,1-9.07,9.06,9.06,9.06,0,0,1,9.07-9.06Z"/><path class="cls-4" d="M518.7,488.05a19.47,19.47,0,1,1-19.47,19.48,19.48,19.48,0,0,1,19.47-19.48Z"/></g><g id="big_math"><path class="cls-4" d="M618.31,733.68A134.45,134.45,0,0,1,769.45,600.32V770H647.69c-17.69.16-26.33-6.19-28.4-20a135.15,135.15,0,0,1-1-16.31Z"/><path class="cls-1" d="M638.05,723.46a101.07,101.07,0,0,1,101-101c8.95.06,12.55,5,12.59,13.28V736.26c.46,11.51-6.2,14.89-16.18,14.5H660.14c-13.3.11-19.79-4.65-21.35-15a103.35,103.35,0,0,1-.74-12.26Z"/><path class="cls-5" d="M618.25,750.13A135.48,135.48,0,0,1,769.57,599.28l.91.12V771H647.69c-18,.16-27.26-6.41-29.44-20.91ZM768.39,769V601.27l-7.31-.69q-4.17-.26-8.38-.26A133.47,133.47,0,0,0,620.32,749.85c2,13.14,10,19.25,27.36,19.1Z"/><path class="cls-5" d="M637.75,735.86a103.73,103.73,0,0,1-.74-12.4A102.1,102.1,0,0,1,739.08,621.39c9.63.06,13.58,5.55,13.62,14.32V736.23c.5,12.35-6.94,16-17.24,15.56H660.14c-13.64.13-20.73-4.86-22.39-15.93Zm112.86.42V635.71c0-7.85-3.28-12.18-11.54-12.23a100,100,0,0,0-99.25,112.1c1.46,9.7,7.36,14.24,20.31,14.13H735.5c9.65.38,15.54-2.74,15.11-13.43Z"/><path class="cls-6" d="M725.29,727.75h-3.53a1.72,1.72,0,0,0-1.72,1.73v23.36a1.73,1.73,0,0,0,1.72,1.73h3.53a1.73,1.73,0,0,0,1.72-1.73V729.48a1.72,1.72,0,0,0-1.72-1.73Z"/><path class="cls-6" d="M739,750.46a2.81,2.81,0,1,1-4-.07,2.82,2.82,0,0,1,4,.07Z"/><path class="cls-6" d="M734.79,746.53c2,2.07,2.79,4.56,1.75,5.56s-3.5.13-5.5-1.93-2.79-4.57-1.76-5.56,3.5-.14,5.51,1.93Z"/><path class="cls-6" d="M743,754.83c2,2.07,2.79,4.56,1.75,5.56s-3.5.14-5.5-1.93-2.79-4.56-1.75-5.56,3.5-.14,5.5,1.93Z"/><path class="cls-6" d="M731,754.71c2.07-2,4.57-2.79,5.57-1.76s.13,3.5-1.94,5.51-4.56,2.78-5.56,1.75-.13-3.5,1.93-5.5Z"/><path class="cls-6" d="M739.33,746.53c2.07-2,4.57-2.78,5.57-1.75s.13,3.5-1.94,5.51-4.56,2.78-5.56,1.75-.13-3.5,1.93-5.51Z"/><path class="cls-6" d="M711.71,750.46a2.82,2.82,0,1,1-4-.06,2.83,2.83,0,0,1,4,.06Z"/><path class="cls-6" d="M707.51,746.53c2,2.07,2.79,4.56,1.76,5.56s-3.5.13-5.51-1.93S701,745.59,702,744.6s3.5-.14,5.5,1.93Z"/><path class="cls-6" d="M715.68,754.83c2,2.07,2.79,4.56,1.76,5.56s-3.5.14-5.51-1.93-2.78-4.56-1.75-5.56,3.5-.14,5.5,1.93Z"/><path class="cls-6" d="M703.76,754.71c2.07-2,4.56-2.79,5.56-1.76s.14,3.5-1.93,5.51-4.56,2.78-5.56,1.75-.14-3.5,1.93-5.5Z"/><path class="cls-6" d="M712.06,746.54c2.07-2,4.56-2.79,5.56-1.75s.14,3.49-1.93,5.5-4.56,2.78-5.56,1.75-.14-3.5,1.93-5.5Z"/><path class="cls-3" d="M717,651.12a7.23,7.23,0,1,1-7.23,7.23,7.23,7.23,0,0,1,7.23-7.23Z"/></g><g id="dayning_table"><polygon class="cls-7" points="654.08 285.79 684.4 268.39 667 238.06 636.67 255.46 654.08 285.79 654.08 285.79"/><path class="cls-5" d="M653.69,287.22l-18.44-32.14,32.14-18.44,18.44,32.13-32.14,18.45Zm.77-2.85L683,268l-16.36-28.51L638.1,255.85l16.36,28.52Z"/><path class="cls-4" d="M635.08,246.94c9.65-6,23.86-.78,31.7,11.75s6.36,27.59-3.3,33.64-23.85.78-31.69-11.74-6.36-27.6,3.29-33.65Z"/><path class="cls-4" d="M663.1,232.25c3.91-3,13.11,3.39,20.53,14.3s10.26,22.23,6.35,25.25-13.12-3.39-20.53-14.3-10.26-22.23-6.35-25.25Z"/><path class="cls-5" d="M630.91,281.14c-8-12.79-6.73-28.61,3.61-35.08s25.14-.71,33.14,12.07,6.73,28.61-3.62,35.08-25.13.71-33.13-12.07Zm32,10.3c9-5.61,10.63-19.94,3-32.2s-21.28-17-30.25-11.41-10.64,19.94-3,32.2,21.29,17,30.26,11.41Z"/><path class="cls-5" d="M668.59,258.09c-7.24-10.66-10.92-23-6.13-26.66s14.81,3.9,22,14.53,10.91,23,6.11,26.66-14.79-3.9-22-14.53ZM689.34,271c1.39-1.07,1.86-4,.7-8.58a50.48,50.48,0,0,0-7.27-15.25c-7.57-11.15-16.08-16.34-19-14.06-1.38,1.07-1.86,4-.7,8.58a50.53,50.53,0,0,0,7.28,15.25c7.57,11.14,16.07,16.34,19,14.06Z"/><polygon class="cls-7" points="529.22 314.34 498.89 331.74 516.3 362.06 546.62 344.66 529.22 314.34 529.22 314.34"/><path class="cls-5" d="M529.61,312.91l18.44,32.14-32.14,18.43-18.44-32.13,32.14-18.44Zm-.77,2.85-28.52,16.36,16.36,28.52,28.52-16.37-16.36-28.51Z"/><path class="cls-4" d="M548.22,353.18c-9.66,6-23.86.78-31.7-11.74s-6.36-27.6,3.29-33.64,23.86-.78,31.7,11.74,6.36,27.6-3.29,33.64Z"/><path class="cls-4" d="M520.19,367.87c-3.91,3-13.11-3.38-20.52-14.3s-10.26-22.22-6.35-25.24,13.11,3.38,20.53,14.3,10.26,22.22,6.34,25.24Z"/><path class="cls-5" d="M552.4,319c8,12.78,6.72,28.6-3.62,35.07s-25.13.71-33.14-12.07-6.72-28.6,3.63-35.08S544.4,306.2,552.4,319Zm-32-10.31c-9,5.61-10.63,19.94-3,32.2s21.29,17,30.26,11.41,10.63-19.93,3-32.2-21.29-17-30.26-11.41Z"/><path class="cls-5" d="M514.71,342c7.25,10.66,10.92,23,6.13,26.66s-14.8-3.89-22-14.53-10.92-23-6.13-26.66,14.81,3.9,22,14.53ZM494,329.15c-1.38,1.07-1.86,4-.7,8.58A50.48,50.48,0,0,0,500.53,353c7.58,11.14,16.08,16.34,19,14.07,1.38-1.08,1.86-4,.7-8.59A50.48,50.48,0,0,0,513,343.21c-7.58-11.14-16.08-16.34-19-14.06Z"/><polygon class="cls-7" points="579.73 239.2 562.33 208.88 532 226.28 549.4 256.6 579.73 239.2 579.73 239.2"/><path class="cls-5" d="M581.15,239.59,549,258l-18.43-32.13,32.13-18.44,18.44,32.14Zm-2.85-.77L561.94,210.3l-28.51,16.36,16.36,28.52,28.51-16.36Z"/><path class="cls-4" d="M540.88,258.2c-6-9.65-.78-23.86,11.74-31.69s27.59-6.37,33.64,3.29.78,23.85-11.74,31.69-27.6,6.37-33.64-3.29Z"/><path class="cls-4" d="M526.19,230.18c-3-3.92,3.39-13.11,14.3-20.53s22.22-10.26,25.24-6.35-3.38,13.11-14.29,20.53-22.23,10.26-25.25,6.35Z"/><path class="cls-5" d="M575.08,262.38c-12.79,8-28.61,6.72-35.09-3.63s-.7-25.13,12.08-33.13,28.6-6.73,35.07,3.62.72,25.13-12.06,33.14Zm10.3-32c-5.62-9-19.93-10.64-32.2-3s-17,21.29-11.42,30.26,19.94,10.63,32.2,3,17-21.29,11.42-30.26Z"/><path class="cls-5" d="M552,224.69c-10.66,7.24-23,10.92-26.66,6.12s3.89-14.8,14.53-22,23-10.91,26.66-6.12-3.9,14.8-14.53,22Zm12.88-20.75c-1.07-1.39-4-1.86-8.58-.7a50.48,50.48,0,0,0-15.25,7.27c-11.15,7.57-16.34,16.08-14.06,19,1.07,1.38,4,1.85,8.58.7A50.64,50.64,0,0,0,550.85,223c11.14-7.57,16.34-16.07,14.06-19Z"/><polygon class="cls-7" points="607.49 360.14 624.89 390.47 655.21 373.07 637.81 342.74 607.49 360.14 607.49 360.14"/><path class="cls-5" d="M606.06,359.75l32.14-18.43,18.44,32.13L624.5,391.89l-18.44-32.14Zm2.85.77L625.28,389l28.51-16.36-16.36-28.52-28.52,16.36Z"/><path class="cls-4" d="M646.34,341.14c6,9.66.77,23.86-11.75,31.7S607,379.2,601,369.55s-.78-23.86,11.74-31.7,27.6-6.36,33.65,3.29Z"/><path class="cls-4" d="M661,369.17c3,3.91-3.39,13.11-14.3,20.53S624.5,400,621.48,396s3.39-13.11,14.3-20.52S658,365.26,661,369.17Z"/><path class="cls-5" d="M612.14,337c12.78-8,28.6-6.72,35.08,3.63s.71,25.13-12.07,33.13-28.61,6.72-35.08-3.62S599.35,345,612.14,337Zm-10.3,32c5.61,9,19.94,10.63,32.2,3s17-21.29,11.41-30.25-19.94-10.64-32.2-3S596.22,360,601.84,369Z"/><path class="cls-5" d="M635.19,374.65c10.66-7.24,23-10.91,26.66-6.12s-3.9,14.8-14.53,22-23,10.91-26.66,6.12,3.9-14.8,14.53-22ZM622.31,395.4c1.06,1.39,4,1.86,8.58.7a50.24,50.24,0,0,0,15.25-7.27c11.14-7.57,16.33-16.07,14.06-19-1.07-1.38-4-1.85-8.58-.7a50.53,50.53,0,0,0-15.25,7.28c-11.15,7.57-16.34,16.07-14.06,19Z"/><path class="cls-7" d="M605.39,235.47a66.36,66.36,0,1,1-79.31,50.18,66.39,66.39,0,0,1,79.31-50.18Z"/><path class="cls-1" d="M631.46,270.16a13.31,13.31,0,1,1-15.9,10.07,13.33,13.33,0,0,1,15.9-10.07Z"/><path class="cls-1" d="M629.39,303.74a2,2,0,0,1,.74-2.68l14-7.91a2,2,0,0,1,2.67.73,2,2,0,0,1-.74,2.68l-14,7.92a2,2,0,0,1-2.67-.74Z"/><path class="cls-1" d="M611,271.77a2,2,0,0,1,.93-2.62l14.47-6.94a2,2,0,1,1,1.69,3.55l-14.46,6.93a2,2,0,0,1-2.63-.92Z"/><path class="cls-1" d="M607.74,265.48a2,2,0,0,1,.92-2.62l14.47-6.93a2,2,0,0,1,1.69,3.54l-14.47,6.93a2,2,0,0,1-2.61-.92Z"/><path class="cls-1" d="M549.76,329A13.31,13.31,0,1,1,565.66,319,13.31,13.31,0,0,1,549.76,329Z"/><path class="cls-1" d="M534.46,305.29a2,2,0,0,1,.74-2.68l14-7.92a2,2,0,0,1,1.94,3.42l-14,7.92a2,2,0,0,1-2.68-.74Z"/><path class="cls-1" d="M552.25,336a2,2,0,0,1,.93-2.62l14.47-6.93a2,2,0,0,1,2.62.93,2,2,0,0,1-.93,2.61L554.87,337a2,2,0,0,1-2.62-.92Z"/><path class="cls-1" d="M555.47,342.32a2,2,0,0,1,.93-2.62l14.47-6.93a2,2,0,0,1,1.7,3.54l-14.47,6.93a2,2,0,0,1-2.63-.92Z"/><path class="cls-1" d="M561.67,259.2a13.3,13.3,0,1,1,10.06,15.91,13.32,13.32,0,0,1-10.06-15.91Z"/><path class="cls-1" d="M592.57,260.54l-7.91-14a2,2,0,1,1,3.41-1.94l7.91,14a2,2,0,1,1-3.41,1.94Z"/><path class="cls-1" d="M560.66,278.79l-6.93-14.48a2,2,0,1,1,3.53-1.69l6.94,14.47a2,2,0,0,1-3.54,1.7Z"/><path class="cls-1" d="M554.37,282l-6.93-14.47a2,2,0,1,1,3.54-1.69l6.93,14.47a2,2,0,1,1-3.54,1.69Z"/><path class="cls-1" d="M622.39,339.91A13.3,13.3,0,1,1,612.33,324a13.32,13.32,0,0,1,10.06,15.91Z"/><path class="cls-1" d="M596,354.46l-7.92-13.95a2,2,0,1,1,3.42-1.94l7.91,14a2,2,0,1,1-3.41,1.93Z"/><path class="cls-1" d="M626.8,336.49,619.86,322a2,2,0,0,1,3.54-1.7l6.94,14.48a2,2,0,0,1-3.54,1.69Z"/><path class="cls-1" d="M633.08,333.27l-6.93-14.47a2,2,0,1,1,3.54-1.7l6.93,14.47a2,2,0,0,1-3.54,1.7Z"/></g><path class="cls-4" d="M724.05,381.85a21,21,0,1,1-21,21,21,21,0,0,1,21-21Z"/><path class="cls-7" d="M721.59,401.46c-4.42,16.82,3.36,31.2,14.88,44.83.5-17-2.83-32.55-14.88-44.83Z"/><path class="cls-7" d="M717.09,403.66c10.81,11.57,24.42,11.16,38.87,7.08-12.41-8.16-25.2-12.25-38.87-7.08Z"/><path class="cls-7" d="M726.85,402.73C709.51,404,698.41,416,689.21,431.28c16.25-5,29.9-13.18,37.64-28.55Z"/><path class="cls-7" d="M686.55,397.4c10.81,11.56,24.42,11.15,38.87,7.07-12.41-8.15-25.21-12.25-38.87-7.07Z"/><path class="cls-7" d="M701.91,375.34c-.53,15.82,9.37,25.15,22.48,32.49-3-14.54-9.17-26.49-22.48-32.49Z"/><path class="cls-7" d="M720.1,402.52c16.82,4.41,31.2-3.36,44.83-14.88-17-.5-32.55,2.83-44.83,14.88Z"/><path class="cls-7" d="M721.6,407.47c12.11-12.48,12.4-28.83,9.06-46.37-8.78,14.56-13.52,29.75-9.06,46.37Z"/><polygon class="cls-4" points="243.62 218.72 243.62 226.15 331.57 226.15 331.57 218.72 243.62 218.72 243.62 218.72"/><path class="cls-4" d="M379.42,192.12a12.22,12.22,0,1,1-17.28.37,12.22,12.22,0,0,1,17.28-.37Z"/><path class="cls-7" d="M370.49,199.37c-8.63,5.3-11.16,14.48-11.81,24.85,7.06-6.94,11.93-14.82,11.81-24.85Z"/><path class="cls-7" d="M367.72,198.48c-.12,9.22,5.77,14.54,13.48,18.65-1.93-8.43-5.66-15.31-13.48-18.65Z"/><path class="cls-7" d="M372.19,202c-7.79-6.47-17.3-5.89-27.33-3.17,8.85,4.45,17.88,6.52,27.33,3.17Z"/><path class="cls-7" d="M357.4,183.54c-.12,9.22,5.77,14.54,13.49,18.65-1.93-8.43-5.67-15.31-13.49-18.65Z"/><path class="cls-7" d="M372.74,180.46c-6.6,6.43-6.19,14.35-3.64,22.72,4.6-7.33,6.82-14.83,3.64-22.72Z"/><path class="cls-7" d="M369.44,199.22c5.29,8.64,14.47,11.16,24.85,11.81-7-7.06-14.83-11.93-24.85-11.81Z"/><path class="cls-7" d="M368.08,201.91c10.12-.37,16.83-7.13,22.49-15.85-9.56,2.58-17.68,7.06-22.49,15.85Z"/><polygon class="cls-4" points="439.02 686.52 447.19 686.52 447.19 553.09 439.02 553.09 439.02 686.52 439.02 686.52"/><path class="cls-4" d="M398.66,489A19.75,19.75,0,1,1,387,514.31,19.76,19.76,0,0,1,398.66,489Z"/><path class="cls-7" d="M402.87,507.06c1.57,16.29,13.12,26.47,27.72,34.76-5.08-15.18-13.08-27.83-27.72-34.76Z"/><path class="cls-7" d="M399.62,510.47c13.3,6.69,25.18,1.91,36.63-6.39-13.62-3.16-26.25-2.62-36.63,6.39Z"/><path class="cls-7" d="M407.93,506.47C393,513.22,387.12,527.42,384,543.93c12.72-9.71,22.12-21.36,23.95-37.46Z"/><path class="cls-7" d="M370.61,514.87c13.3,6.7,25.18,1.91,36.63-6.39-13.62-3.17-26.25-2.61-36.63,6.39Z"/><path class="cls-7" d="M377,490.4c4.67,14.14,16.46,19.16,30.42,21.38C400,499.91,390.7,491.37,377,490.4Z"/><path class="cls-7" d="M401.9,508.49c16.29-1.58,26.47-13.12,34.76-27.74-15.17,5.09-27.83,13.09-34.76,27.74Z"/><path class="cls-7" d="M404.84,512.36c6.63-15,1.57-29.49-7.08-43.89-3,15.72-2.27,30.67,7.08,43.89Z"/><g id="circle_table"><path class="cls-7" d="M559.83,574.41A64.83,64.83,0,1,1,495,639.24a64.86,64.86,0,0,1,64.83-64.83Z"/><path class="cls-4" d="M559.83,594a45.26,45.26,0,1,1-45.25,45.26A45.28,45.28,0,0,1,559.83,594Z"/><path class="cls-7" d="M559.83,606.51a32.73,32.73,0,1,1-32.72,32.73,32.74,32.74,0,0,1,32.72-32.73Z"/></g><g id="floor1"><polygon class="cls-7" points="99.6 38.55 99.6 210.63 228.18 210.63 228.18 38.55 99.6 38.55 99.6 38.55"/><path class="cls-1" d="M114.83,90.85V65.23a5.06,5.06,0,0,1,5-5.05h35a5.06,5.06,0,0,1,5,5.05V90.85a5.06,5.06,0,0,1-5,5.05h-35a5.06,5.06,0,0,1-5-5.05Z"/><path class="cls-1" d="M168.25,90.85V65.23a5.06,5.06,0,0,1,5.06-5.05h35a5.06,5.06,0,0,1,5,5.05V90.85a5.06,5.06,0,0,1-5,5.05h-35a5.06,5.06,0,0,1-5.06-5.05Z"/><polygon class="cls-7" points="36.06 51.87 36.06 95.49 86.48 95.49 86.48 51.87 36.06 51.87 36.06 51.87"/><path class="cls-1" d="M60.59,60.22A12.16,12.16,0,1,1,48.44,72.38,12.16,12.16,0,0,1,60.59,60.22Z"/><polygon class="cls-7" points="240.26 52.64 240.26 96.26 290.69 96.26 290.69 52.64 240.26 52.64 240.26 52.64"/><path class="cls-1" d="M264.79,61a12.16,12.16,0,1,1-12.15,12.16A12.16,12.16,0,0,1,264.79,61Z"/><path class="cls-5" d="M98.56,211.67V37.5H229.22V211.67Zm128.58-2.09v-170H100.64v170Z"/><path class="cls-5" d="M113.78,90.85V65.23a6.1,6.1,0,0,1,6.1-6.09h35a6.09,6.09,0,0,1,6.09,6.09V90.85a6.09,6.09,0,0,1-6.09,6.09h-35a6.1,6.1,0,0,1-6.1-6.09Zm45.07,0V65.23a4,4,0,0,0-4-4h-35a4,4,0,0,0-4,4V90.85a4,4,0,0,0,4,4h35a4,4,0,0,0,4-4Z"/><path class="cls-5" d="M167.21,90.85V65.23a6.1,6.1,0,0,1,6.1-6.09h35a6.09,6.09,0,0,1,6.09,6.09V90.85a6.09,6.09,0,0,1-6.09,6.09h-35a6.1,6.1,0,0,1-6.1-6.09Zm45.06,0V65.23a4,4,0,0,0-4-4h-35a4,4,0,0,0-4,4V90.85a4,4,0,0,0,4,4h35a4,4,0,0,0,4-4Z"/><path class="cls-5" d="M35,96.53V50.82H87.53V96.53Zm50.42-2.09V52.91H37.11V94.44Zm-38-22.07a13.2,13.2,0,1,1,13.19,13.2A13.2,13.2,0,0,1,47.4,72.37Zm24.3,0A11.11,11.11,0,1,0,60.59,83.48,11.12,11.12,0,0,0,71.7,72.37Z"/><path class="cls-5" d="M239.23,97.3V51.6h52.5V97.3Zm50.42-2.09V53.69H241.31V95.21ZM251.59,73.15A13.2,13.2,0,1,1,264.8,86.34a13.21,13.21,0,0,1-13.21-13.19Zm24.31,0a11.11,11.11,0,1,0-11.1,11.1,11.12,11.12,0,0,0,11.1-11.1Z"/><polygon class="cls-4" points="92.06 30.44 92.06 47.84 236.09 47.84 236.09 30.44 92.06 30.44 92.06 30.44"/><path class="cls-5" d="M91,48.88V29.39H237.14V48.88Zm144-2.09V31.48H93.11V46.79Z"/><path class="cls-1" d="M92.83,134.24V107.85a2.46,2.46,0,0,1,2.46-2.46h137.2a2.46,2.46,0,0,1,2.46,2.46v26.39a2.46,2.46,0,0,1-2.46,2.46H95.29a2.46,2.46,0,0,1-2.46-2.46Z"/><path class="cls-5" d="M91.79,134.24v-26.4a3.51,3.51,0,0,1,3.51-3.5H232.49a3.5,3.5,0,0,1,3.5,3.5v26.4a3.51,3.51,0,0,1-3.5,3.51H95.3a3.51,3.51,0,0,1-3.51-3.51Zm142.12,0v-26.4a1.42,1.42,0,0,0-1.42-1.41H95.3a1.42,1.42,0,0,0-1.42,1.41v26.4a1.43,1.43,0,0,0,1.42,1.42H232.49a1.43,1.43,0,0,0,1.42-1.42Z"/></g><g id="sofa4"><path class="cls-4" d="M323.09,613.42l-24.36-24.29a7.53,7.53,0,0,0-10.64,0L285,592.24a7.52,7.52,0,0,0,0,10.63l24.35,24.29a7.52,7.52,0,0,0,10.64,0l3.08-3.08a7.53,7.53,0,0,0,0-10.64Z"/><path class="cls-5" d="M308.65,627.9l-24.37-24.29a8.57,8.57,0,0,1,0-12.11l3.08-3.09a8.58,8.58,0,0,1,12.12,0l24.35,24.29a8.56,8.56,0,0,1,0,12.11l-3.08,3.09a8.57,8.57,0,0,1-12.11,0Zm10.64-1.5,3.08-3.08a6.49,6.49,0,0,0,0-9.16L298,589.88a6.47,6.47,0,0,0-9.16,0L285.75,593a6.48,6.48,0,0,0,0,9.16l24.36,24.28a6.48,6.48,0,0,0,9.17,0Z"/><path class="cls-4" d="M274.93,603.38l-22.93,23A7.51,7.51,0,0,0,252,637l29.26,29.19a7.48,7.48,0,0,0,10.6,0l22.93-23a7.51,7.51,0,0,0,0-10.61l-29.25-29.19a7.49,7.49,0,0,0-10.61,0Z"/><path class="cls-5" d="M280.54,666.93l-29.25-29.19a8.55,8.55,0,0,1,0-12.09l22.92-23a8.55,8.55,0,0,1,12.09,0l29.25,29.18a8.57,8.57,0,0,1,0,12.1l-22.92,23a8.54,8.54,0,0,1-12.09,0Zm10.61-1.49,22.92-23a6.47,6.47,0,0,0,0-9.15L284.8,604.1a6.46,6.46,0,0,0-9.13,0l-22.92,23a6.48,6.48,0,0,0,0,9.15L282,665.46a6.48,6.48,0,0,0,9.14,0Z"/><path class="cls-4" d="M277,659.63l-24.37-24.28a7.51,7.51,0,0,0-10.63,0L239,638.45a7.53,7.53,0,0,0,0,10.64l24.36,24.29a7.53,7.53,0,0,0,10.64,0l3.07-3.08a7.53,7.53,0,0,0,0-10.65Z"/><path class="cls-5" d="M262.59,674.12l-24.36-24.29a8.57,8.57,0,0,1,0-12.12l3.08-3.08a8.56,8.56,0,0,1,12.11,0l24.37,24.28a8.58,8.58,0,0,1,0,12.12l-3.07,3.09a8.58,8.58,0,0,1-12.12,0Zm10.64-1.5,3.08-3.08a6.5,6.5,0,0,0,0-9.17l-24.36-24.29a6.49,6.49,0,0,0-9.16,0l-3.08,3.09a6.48,6.48,0,0,0,0,9.16l24.36,24.28a6.47,6.47,0,0,0,9.16,0Z"/><path class="cls-4" d="M313.31,620.22l-42.75,42.9a10.5,10.5,0,0,0,0,14.86l.47.47a10.5,10.5,0,0,0,14.85,0l42.75-42.89a10.53,10.53,0,0,0,0-14.87l-.47-.46a10.51,10.51,0,0,0-14.85,0Z"/><path class="cls-5" d="M270.31,679.19l-.47-.47a11.57,11.57,0,0,1,0-16.34l42.75-42.9a11.56,11.56,0,0,1,16.33,0l.47.46a11.58,11.58,0,0,1,0,16.35l-42.74,42.89a11.57,11.57,0,0,1-16.34,0Zm14.85-1.51,42.75-42.89a9.47,9.47,0,0,0,0-13.38l-.47-.47a9.46,9.46,0,0,0-13.38,0L271.3,663.85a9.47,9.47,0,0,0,0,13.38l.48.47a9.45,9.45,0,0,0,13.37,0Z"/></g><path class="cls-4" d="M220.36,453.45,196.08,477.8a7.53,7.53,0,0,0,0,10.64l3.09,3.08a7.51,7.51,0,0,0,10.63,0l24.29-24.35a7.53,7.53,0,0,0,0-10.64L231,453.43a7.51,7.51,0,0,0-10.64,0Z"/><path class="cls-5" d="M234.84,467.88l-24.28,24.36a8.57,8.57,0,0,1-12.12,0l-3.09-3.07a8.58,8.58,0,0,1,0-12.12l24.28-24.35a8.58,8.58,0,0,1,12.12,0l3.08,3.08a8.57,8.57,0,0,1,0,12.12Zm-1.49-10.64-3.09-3.07a6.49,6.49,0,0,0-9.16,0l-24.28,24.37a6.48,6.48,0,0,0,0,9.16l3.09,3.08a6.49,6.49,0,0,0,9.16,0l24.28-24.36a6.5,6.5,0,0,0,0-9.17Z"/><path class="cls-4" d="M210.32,501.6l23,22.92a7.51,7.51,0,0,0,10.61,0l29.19-29.26a7.49,7.49,0,0,0,0-10.6l-23-22.93a7.51,7.51,0,0,0-10.62,0L210.31,491a7.5,7.5,0,0,0,0,10.61Z"/><path class="cls-5" d="M273.87,496l-29.18,29.25a8.55,8.55,0,0,1-12.09,0l-23-22.92a8.53,8.53,0,0,1,0-12.08L238.76,461a8.56,8.56,0,0,1,12.09,0l23,22.92a8.54,8.54,0,0,1,0,12.09Zm-1.49-10.61-23-22.92a6.47,6.47,0,0,0-9.15,0L211,491.73a6.46,6.46,0,0,0,0,9.13l23,22.92a6.46,6.46,0,0,0,9.14,0l29.19-29.24a6.47,6.47,0,0,0,0-9.14Z"/><path class="cls-4" d="M266.57,499.5l-24.29,24.36a7.53,7.53,0,0,0,0,10.64l3.08,3.08a7.53,7.53,0,0,0,10.65,0l24.28-24.36a7.53,7.53,0,0,0,0-10.64l-3.09-3.07a7.53,7.53,0,0,0-10.64,0Z"/><path class="cls-5" d="M281.06,513.93,256.77,538.3a8.56,8.56,0,0,1-12.11,0l-3.09-3.08a8.57,8.57,0,0,1,0-12.12l24.29-24.36a8.57,8.57,0,0,1,12.12,0l3.08,3.07a8.57,8.57,0,0,1,0,12.11Zm-1.5-10.62-3.08-3.09a6.49,6.49,0,0,0-9.16,0L243,524.6a6.48,6.48,0,0,0,0,9.16l3.09,3.08a6.49,6.49,0,0,0,9.16,0l24.29-24.36a6.46,6.46,0,0,0,0-9.15Z"/><path class="cls-4" d="M227.16,463.22,270.06,506a10.51,10.51,0,0,0,14.86,0l.47-.47a10.5,10.5,0,0,0,0-14.85l-42.89-42.76a10.51,10.51,0,0,0-14.86,0l-.47.47a10.5,10.5,0,0,0,0,14.85Z"/><path class="cls-5" d="M286.13,506.22l-.47.47a11.57,11.57,0,0,1-16.34,0L226.42,464a11.56,11.56,0,0,1,0-16.33l.47-.47a11.57,11.57,0,0,1,16.34,0l42.89,42.76a11.55,11.55,0,0,1,0,16.33Zm-1.5-14.86-42.9-42.74a9.46,9.46,0,0,0-13.38,0l-.47.48a9.46,9.46,0,0,0,0,13.37l42.9,42.75a9.47,9.47,0,0,0,13.38,0l.47-.48a9.47,9.47,0,0,0,0-13.38Z"/><g id="gologoltable"><path class="cls-4" d="M239.25,712.17A11.24,11.24,0,1,1,228,723.41a11.24,11.24,0,0,1,11.24-11.24Z"/><path class="cls-4" d="M238.5,731.71A11.24,11.24,0,1,1,227.26,743a11.25,11.25,0,0,1,11.24-11.24Z"/><path class="cls-4" d="M251,744.62a7.89,7.89,0,1,1-7.89,7.89,7.89,7.89,0,0,1,7.89-7.89Z"/><path class="cls-4" d="M253,707.13a7.89,7.89,0,1,1-7.89,7.89,7.89,7.89,0,0,1,7.89-7.89Z"/><path class="cls-4" d="M268.05,711.35a11.25,11.25,0,1,1-11.24,11.24,11.25,11.25,0,0,1,11.24-11.24Z"/><path class="cls-4" d="M264.44,741.64a9.63,9.63,0,1,1-9.63,9.63,9.64,9.64,0,0,1,9.63-9.63Z"/><path class="cls-4" d="M272.15,729.48a7.89,7.89,0,1,1-7.9,7.88,7.89,7.89,0,0,1,7.9-7.88Z"/><path class="cls-4" d="M257.37,719.29a17,17,0,1,1-17,17,17,17,0,0,1,17-17Z"/><path class="cls-5" d="M257.13,759l-.58.57a8.94,8.94,0,0,1-14.11-4.61l-.07-.39-1.21.41a12.29,12.29,0,0,1-9.72-22.05l-1-1a12.28,12.28,0,0,1,13.9-19.72l.23.12,0-.17a8.94,8.94,0,0,1,16.33-1.39l.63,1.45.37-.26a12.29,12.29,0,0,1,16.37,17.46l-.74.9.88.66A8.94,8.94,0,0,1,274,746.12h-.17l.71,1.54A10.69,10.69,0,0,1,264.44,762a10.61,10.61,0,0,1-6.47-2.19l-.84-.79Zm15.89-7.7a8.45,8.45,0,0,0-1.89-5.36l-1.37-1.73,2.4,0a6.84,6.84,0,0,0,3.36-12.8l-1.19-.68,1-1a10.2,10.2,0,0,0-13.78-15L260.07,716l-.25-1.88a6.85,6.85,0,0,0-13.56-.06l-.23,1.59-1.36-.85a10.2,10.2,0,1,0-10.79,17.31l1.56,1-1.63.85a10.19,10.19,0,0,0,4.7,19.24,10,10,0,0,0,4.24-.92l1.35-.61.12,1.48a6.85,6.85,0,0,0,12.1,3.78l.79-1,.81.94a8.59,8.59,0,0,0,15.1-5.59Z"/></g><g id="stadium"><path class="cls-4" d="M445.07,712.42c.71,0,1.42,0,2.12,0v57.09H381.57a63.88,63.88,0,0,1,63.5-57.13Z"/><path class="cls-5" d="M380.41,770.6l.12-1.16a64.92,64.92,0,0,1,64.54-58.06l2.16,0,1,0V770.6Zm65.74-2.09v-55l-1.08,0a62.86,62.86,0,0,0-61.57,50.37l-.72,4.68Z"/></g><g id="reading_table"><path class="cls-3" d="M346.41,356.83V322.26a7.19,7.19,0,0,0-7.19-7.19H316a7.19,7.19,0,0,0-7.19,7.19v34.57A7.2,7.2,0,0,0,316,364h23.21a7.2,7.2,0,0,0,7.19-7.19Z"/><path class="cls-5" d="M307.78,356.83V322.25A8.23,8.23,0,0,1,316,314h23.22a8.23,8.23,0,0,1,8.23,8.22v34.58a8.24,8.24,0,0,1-8.23,8.23H316a8.24,8.24,0,0,1-8.23-8.23Zm37.58,0V322.25a6.15,6.15,0,0,0-6.13-6.14H316a6.15,6.15,0,0,0-6.14,6.14v34.58A6.14,6.14,0,0,0,316,363h23.22a6.14,6.14,0,0,0,6.13-6.14Z"/><polygon class="cls-4" points="342.15 421.24 400.29 421.24 400.29 267.27 342.15 267.27 342.15 421.24 342.15 421.24"/><polygon class="cls-1" points="354.76 368.94 369.69 368.94 369.69 330.97 354.76 330.97 354.76 368.94 354.76 368.94"/><polygon class="cls-1" points="386.86 381.15 392.31 381.15 392.31 306.48 386.86 306.48 386.86 381.15 386.86 381.15"/><path class="cls-1" d="M358.19,313.22c.72-2.45,4.23-3.57,7.83-2.52s6,3.9,5.23,6.35-4.23,3.57-7.83,2.52-5.95-3.9-5.23-6.35Z"/><path class="cls-5" d="M341.11,422.29V266.22h60.22V422.29Zm58.13-2.09V268.31H343.19V420.2Z"/><polygon class="cls-1" points="356.16 299.2 380.7 304.27 384.35 286.63 359.81 281.56 356.16 299.2 356.16 299.2"/><path class="cls-5" d="M381.52,305.5,354.93,300,359,280.33l26.59,5.49-4.07,19.68ZM379.9,303l3.22-15.6-22.5-4.65-3.22,15.6L379.9,303Z"/><polygon class="cls-4" points="360.71 297.02 385.45 292.98 382.55 275.21 357.81 279.24 360.71 297.02 360.71 297.02"/><path class="cls-5" d="M359.85,298.21l-3.24-19.83,26.8-4.37,3.24,19.84-26.8,4.36Zm1.72-2.39,22.68-3.7-2.56-15.72L359,280.1l2.56,15.72Z"/><path class="cls-4" d="M293.24,339.34c0-16,4.25-29,9.48-29s9.49,13,9.49,29-4.25,29-9.49,29-9.48-13-9.48-29Z"/><path class="cls-5" d="M295,360.18a78.11,78.11,0,0,1,0-41.67c1.68-5.14,4.26-9.22,7.7-9.22s6,4.06,7.7,9.22a78.11,78.11,0,0,1,0,41.67c-1.68,5.14-4.26,9.22-7.7,9.22s-6-4.06-7.7-9.22Zm13.41-.65a76,76,0,0,0,0-40.37c-1.75-5.36-3.92-7.78-5.71-7.78s-4,2.44-5.72,7.78a76.26,76.26,0,0,0,0,40.37c1.75,5.36,3.92,7.78,5.72,7.78s4-2.44,5.71-7.78Z"/><path class="cls-4" d="M309.1,311.84c0-2.5,5.44-4.53,12.14-4.53s12.15,2,12.15,4.53-5.44,4.54-12.15,4.54-12.14-2-12.14-4.54Z"/><path class="cls-5" d="M312.3,316a9.6,9.6,0,0,1-2.93-1.64,3.14,3.14,0,0,1,0-5.1,9.39,9.39,0,0,1,2.93-1.64,29.28,29.28,0,0,1,17.89,0,9.39,9.39,0,0,1,2.93,1.64,3.14,3.14,0,0,1,0,5.1,9.6,9.6,0,0,1-2.93,1.64,29.48,29.48,0,0,1-17.89,0Zm17.16-2c2.18-.82,2.88-1.73,2.88-2.23s-.69-1.41-2.88-2.23a27.41,27.41,0,0,0-16.43,0c-2.18.81-2.89,1.72-2.89,2.23s.69,1.41,2.89,2.23a27.41,27.41,0,0,0,16.43,0Z"/><path class="cls-4" d="M309.1,367.54c0-2.51,5.44-4.54,12.14-4.54s12.15,2,12.15,4.54-5.44,4.53-12.15,4.53-12.14-2-12.14-4.53Z"/><path class="cls-5" d="M312.3,371.72a9.39,9.39,0,0,1-2.93-1.64,3.14,3.14,0,0,1,0-5.1,9.38,9.38,0,0,1,2.93-1.63,29.28,29.28,0,0,1,17.89,0,9.38,9.38,0,0,1,2.93,1.63,3.14,3.14,0,0,1,0,5.1,9.39,9.39,0,0,1-2.93,1.64,29.48,29.48,0,0,1-17.89,0Zm17.16-2c2.18-.81,2.88-1.72,2.88-2.23s-.69-1.41-2.88-2.23a27.41,27.41,0,0,0-16.43,0c-2.18.82-2.89,1.73-2.89,2.23s.69,1.41,2.89,2.23a27.2,27.2,0,0,0,16.43,0Z"/></g><g id="wall_1"><polygon class="cls-4" points="424.09 449.69 457.49 449.69 457.49 298.26 424.09 298.26 424.09 449.69 424.09 449.69"/><path class="cls-5" d="M423.05,450.73V297.22h35.48V450.73Zm33.39-2.1V299.3H425.13V448.63Z"/></g><g id="soto_table"><path class="cls-4" d="M448.1,49.92A15.06,15.06,0,1,1,433,65,15.07,15.07,0,0,1,448.1,49.92Z"/><path class="cls-5" d="M432,65A16.11,16.11,0,1,1,448.1,81.09,16.12,16.12,0,0,1,432,65Zm30.13,0a14,14,0,1,0-14,14,14,14,0,0,0,14-14Z"/></g><g id="washroom"><polygon class="cls-4" points="616.39 30.37 616.39 98.46 699.68 98.46 699.68 30.37 616.39 30.37 616.39 30.37"/><polygon class="cls-7" points="616.38 30.38 616.38 63.77 699.67 63.77 699.67 30.38 616.38 30.38 616.38 30.38"/><path class="cls-7" d="M533.89,106.26V97.94a4.82,4.82,0,0,1,4.81-4.81h69.81a4.82,4.82,0,0,1,4.82,4.81v8.32a4.82,4.82,0,0,1-4.82,4.82H538.7a4.82,4.82,0,0,1-4.81-4.82Z"/><polygon class="cls-4" points="533.89 30.29 533.89 98.37 613.33 98.37 613.33 30.29 533.89 30.29 533.89 30.29"/><path class="cls-7" d="M556.4,41.82a10.76,10.76,0,1,1-10.75,10.76A10.76,10.76,0,0,1,556.4,41.82Z"/><path class="cls-7" d="M556.4,73.6a9.22,9.22,0,1,1-9.21,9.22,9.22,9.22,0,0,1,9.21-9.22Z"/><path class="cls-7" d="M588.75,75.14a7.68,7.68,0,1,1-7.68,7.68,7.68,7.68,0,0,1,7.68-7.68Z"/><path class="cls-7" d="M589.09,39.35a13.23,13.23,0,1,1-13.22,13.23,13.24,13.24,0,0,1,13.22-13.23Z"/><polygon class="cls-4" points="702.61 30.37 702.61 98.46 769.55 98.46 769.55 30.37 702.61 30.37 702.61 30.37"/><polygon class="cls-4" points="482.41 30.38 482.41 98.47 530.67 98.47 530.67 30.38 482.41 30.38 482.41 30.38"/><polygon class="cls-7" points="482.41 30.38 482.41 63.77 530.67 63.77 530.67 30.38 482.41 30.38 482.41 30.38"/><polygon class="cls-4" points="769.54 101.16 702.61 101.16 702.61 184.44 769.54 184.44 769.54 101.16 769.54 101.16"/><path class="cls-1" d="M746.06,155H718.89a9.63,9.63,0,0,1-9.63-9.63V117.22a9.63,9.63,0,0,1,9.63-9.63h27.17a9.63,9.63,0,0,1,9.63,9.63V145.4a9.63,9.63,0,0,1-9.63,9.63Z"/><path class="cls-4" d="M731.42,125.83a5.22,5.22,0,1,1-4.74,5.2,5,5,0,0,1,4.74-5.2Z"/><path class="cls-6" d="M737.75,129.74v2.71a1.34,1.34,0,0,0,1.33,1.33h18a1.34,1.34,0,0,0,1.33-1.33v-2.71a1.34,1.34,0,0,0-1.33-1.33h-18a1.34,1.34,0,0,0-1.33,1.33Z"/><path class="cls-6" d="M755.23,119.21a2.17,2.17,0,1,1-.05,3.06,2.16,2.16,0,0,1,.05-3.06Z"/><path class="cls-6" d="M752.21,122.43c1.59-1.54,3.51-2.14,4.28-1.35s.1,2.7-1.49,4.24-3.51,2.14-4.28,1.35-.1-2.69,1.49-4.24Z"/><path class="cls-6" d="M758.59,116.15c1.59-1.54,3.51-2.15,4.28-1.35s.11,2.69-1.48,4.23-3.51,2.15-4.28,1.35-.11-2.69,1.48-4.23Z"/><path class="cls-6" d="M758.49,125.32c-1.53-1.59-2.14-3.51-1.34-4.28s2.69-.1,4.23,1.49,2.15,3.51,1.35,4.28-2.69.1-4.24-1.49Z"/><path class="cls-6" d="M752.21,118.94c-1.54-1.59-2.15-3.51-1.35-4.28s2.69-.11,4.23,1.49,2.15,3.51,1.35,4.27-2.69.11-4.23-1.48Z"/><path class="cls-6" d="M755.23,140.19a2.17,2.17,0,1,1,0,3.06,2.18,2.18,0,0,1,0-3.06Z"/><path class="cls-6" d="M752.21,143.41c1.59-1.53,3.51-2.14,4.28-1.34s.11,2.69-1.49,4.23-3.51,2.14-4.28,1.35-.1-2.69,1.49-4.24Z"/><path class="cls-6" d="M758.59,137.13c1.59-1.54,3.51-2.15,4.28-1.35s.11,2.69-1.48,4.23-3.51,2.15-4.28,1.35-.11-2.69,1.48-4.23Z"/><path class="cls-6" d="M758.49,146.3c-1.53-1.58-2.14-3.51-1.34-4.28s2.69-.1,4.23,1.49,2.15,3.51,1.35,4.28-2.69.11-4.24-1.49Z"/><path class="cls-6" d="M752.21,139.92c-1.54-1.59-2.15-3.51-1.35-4.28s2.69-.1,4.23,1.49,2.15,3.51,1.35,4.28-2.69.1-4.23-1.49Z"/><polygon class="cls-7" points="762.89 159.74 709.26 159.74 709.26 179.31 762.89 179.31 762.89 159.74 762.89 159.74"/><path class="cls-5" d="M615.34,99.51V29.33h85.38V99.51Zm83.29-2.09v-66h-81.2v66Z"/><path class="cls-5" d="M615.34,64.81V29.33h85.38V64.81Zm83.29-2.09V31.42h-81.2v31.3Z"/><path class="cls-5" d="M532.85,106.26v-77h81.52v77a5.86,5.86,0,0,1-5.85,5.86H538.71a5.86,5.86,0,0,1-5.86-5.86Zm79.44,0V99.41H534.94v6.85a3.77,3.77,0,0,0,3.77,3.77h69.81a3.78,3.78,0,0,0,3.77-3.77Zm0-8.89V93.54h0V31.33h0v-1H535v1h0V93.55h0v3.83Z"/><path class="cls-5" d="M701.56,99.51V29.33h69V99.51Zm66.94-2.09v-66H703.65v66Z"/><path class="cls-5" d="M481.37,99.51V29.33h50.35V99.51Zm48.26-2.09v-66H483.46v66Z"/><path class="cls-5" d="M481.37,64.81V29.33h50.35V64.81Zm48.26-2.08V31.42H483.46V62.73Z"/><path class="cls-5" d="M701.57,185.49V100.11h69v85.38Zm66.93-2.09V102.2H703.66v81.2Z"/><path class="cls-5" d="M708.22,180.35V158.69h55.72v21.66Zm53.63-2.09V160.78H710.31v17.48Z"/></g><g id="wall_2"><polygon class="cls-4" points="736.15 328.58 769.55 328.58 769.55 234.42 736.15 234.42 736.15 328.58 736.15 328.58"/><path class="cls-5" d="M735.12,329.62V233.37h35.47v96.25Zm33.39-2.09V235.46H737.2v92.07Z"/></g><g id="kitchen"><path class="cls-4" d="M692.27,546.24h53.64a10.59,10.59,0,0,0,10.58-10.58l-5.26-53.2a10.58,10.58,0,0,0-10.58-10.57H697.53A10.58,10.58,0,0,0,687,482.46l-5.27,53.2a10.59,10.59,0,0,0,10.58,10.58Z"/><text class="cls-8" transform="translate(696.68 515.14)"><tspan class="cls-9">L</tspan><tspan x="5.5" y="0">o</tspan><tspan class="cls-10" x="12.08" y="0">r</tspan><tspan x="15.89" y="0">em </tspan><tspan x="5.68" y="14.4">ipsum </tspan></text><path class="cls-3" d="M713.61,515.22a6,6,0,1,1,6,5.47,5.76,5.76,0,0,1-6-5.47Z"/><path class="cls-6" d="M718.1,507.9h3.13a1.53,1.53,0,0,0,1.54-1.53V485.61a1.53,1.53,0,0,0-1.54-1.53H718.1a1.53,1.53,0,0,0-1.53,1.53v20.76a1.53,1.53,0,0,0,1.53,1.53Z"/><path class="cls-6" d="M704.38,489.79a2.5,2.5,0,1,1,3.53.06,2.5,2.5,0,0,1-3.53-.06Z"/><path class="cls-6" d="M708.1,493.29c-1.78-1.84-2.48-4.06-1.56-5s3.11-.12,4.89,1.72,2.48,4.06,1.56,4.95-3.11.12-4.89-1.72Z"/><path class="cls-6" d="M700.84,485.92c-1.78-1.84-2.48-4.06-1.56-4.95s3.11-.12,4.89,1.72,2.48,4.05,1.56,4.94-3.11.12-4.89-1.71Z"/><path class="cls-6" d="M711.44,486c-1.84,1.78-4.06,2.48-5,1.56s-.12-3.11,1.72-4.89,4.06-2.48,4.94-1.56.12,3.11-1.71,4.89Z"/><path class="cls-6" d="M704.06,493.29c-1.83,1.78-4,2.48-4.94,1.56s-.12-3.11,1.72-4.89,4-2.48,4.94-1.56.12,3.11-1.72,4.89Z"/><path class="cls-6" d="M730.86,489.79a2.5,2.5,0,1,1,3.54.06,2.5,2.5,0,0,1-3.54-.06Z"/><path class="cls-6" d="M734.59,493.29c-1.79-1.84-2.48-4.06-1.56-5s3.11-.12,4.88,1.72,2.48,4.06,1.57,4.95-3.12.12-4.89-1.72Z"/><path class="cls-6" d="M727.33,485.92c-1.79-1.84-2.48-4.06-1.57-4.95s3.11-.12,4.89,1.72,2.48,4.05,1.56,4.94-3.1.12-4.88-1.71Z"/><text/><path class="cls-6" d="M730.54,493.28c-1.83,1.79-4,2.48-4.94,1.56s-.12-3.11,1.72-4.89,4-2.47,4.94-1.56.12,3.11-1.72,4.89Z"/><path class="cls-5" d="M680.65,535.66l5.28-53.29.22-2.24a11.62,11.62,0,0,1,11.38-9.28h43.12A11.63,11.63,0,0,1,752,480.13l.23,2.24,5.27,53.29a11.64,11.64,0,0,1-11.62,11.63H692.27a11.64,11.64,0,0,1-11.62-11.63Zm74.79,0-5.26-53.23a9.54,9.54,0,0,0-9.53-9.54H697.53a9.55,9.55,0,0,0-9.53,9.56l-5.26,53.21.19,1.89a9.55,9.55,0,0,0,9.34,7.61h53.64a9.55,9.55,0,0,0,9.34-7.61l.19-1.89Z"/></g><polygon class="cls-4" points="581.29 769.71 581.29 736.32 487.13 736.32 487.13 769.71 581.29 769.71 581.29 769.71"/><path class="cls-5" d="M486.09,770.76V735.28h96.25v35.48Zm94.16-2.09V737.36H488.18v31.31Z"/><g id="basing1"><path class="cls-7" d="M634.2,561.64h-.05v0c-24,1-37.21-54.78-25.43-72.84h51c11.78,18.06-1.47,73.79-25.42,72.83h-.13Z"/><path class="cls-1" d="M634.21,548.38h0c-14.79.51-23-29.83-15.69-39.66,7.53-7.64,24.85-8.12,31.49,0,7.26,9.83-.91,40.17-15.69,39.66h-.09Z"/><path class="cls-5" d="M607.85,488.25l.31-.47h52.15l.31.47c11.59,17.78-.33,71.92-24,74.37l-2.28.08h-.14c-25.32,1-38.37-56-26.34-74.45Zm51.3,1.62H609.34l-.76,1.29c-9.42,18.72,2.69,67.07,23.42,69.38l1.69.06h1l1.8-.06c20.64-2.32,32.79-50.74,23.43-69.38l-.73-1.29Z"/><path class="cls-4" d="M608.15,498.56h51.19A10.54,10.54,0,0,0,669.88,488v-5.09a10.55,10.55,0,0,0-10.54-10.55H608.15a10.55,10.55,0,0,0-10.54,10.55V488a10.54,10.54,0,0,0,10.54,10.54Z"/><path class="cls-1" d="M633.07,479.9a5,5,0,1,1-5,5,5,5,0,0,1,5-5Z"/><path class="cls-4" d="M626.22,509.77a12.34,12.34,0,0,1,1.53-6,27.9,27.9,0,0,1,12.65-.33,12.19,12.19,0,0,1,1.72,6.38c0,5.67-3.56,10.27-7.94,10.27s-8-4.6-8-10.27Z"/><path class="cls-5" d="M596.56,488v-5.09a11.59,11.59,0,0,1,11.59-11.58h51.19a11.6,11.6,0,0,1,11.59,11.58V488a11.6,11.6,0,0,1-11.59,11.59H608.15A11.59,11.59,0,0,1,596.56,488Zm72.28,0v-5.09a9.5,9.5,0,0,0-9.5-9.49H608.15a9.49,9.49,0,0,0-9.49,9.49V488a9.49,9.49,0,0,0,9.49,9.5h51.19a9.5,9.5,0,0,0,9.5-9.5Z"/></g><g id="bigSofa"><path class="cls-11" d="M166.75,683.28H125.63a10.36,10.36,0,0,0-10.33,10.37v57.13a10.36,10.36,0,0,0,10.33,10.37h41.12a10.35,10.35,0,0,0,10.33-10.37V693.65a10.35,10.35,0,0,0-10.33-10.37Z"/><path class="cls-11" d="M57.32,504h47.32A10.39,10.39,0,0,0,115,493.58V483.15a10.38,10.38,0,0,0-10.35-10.4H57.32A10.38,10.38,0,0,0,47,483.15v10.43A10.39,10.39,0,0,0,57.32,504Z"/><path class="cls-11" d="M45.93,493.58V483.14A11.43,11.43,0,0,1,57.32,471.7h47.33A11.42,11.42,0,0,1,116,483.14v10.44A11.42,11.42,0,0,1,104.65,505H57.32a11.43,11.43,0,0,1-11.39-11.45Zm68,0V483.14a9.34,9.34,0,0,0-9.3-9.35H57.32A9.35,9.35,0,0,0,48,483.14v10.44a9.34,9.34,0,0,0,9.31,9.35h47.33a9.33,9.33,0,0,0,9.3-9.35Z"/><path class="cls-11" d="M114,553V511.7a10.36,10.36,0,0,0-10.33-10.37H46.82A10.36,10.36,0,0,0,36.49,511.7V553A10.36,10.36,0,0,0,46.82,563.4h56.84A10.36,10.36,0,0,0,114,553Z"/><path class="cls-11" d="M114.26,750.77V693.65a11.39,11.39,0,0,1,11.37-11.41h41.13a11.39,11.39,0,0,1,11.36,11.41v57.12a11.4,11.4,0,0,1-11.36,11.43H125.63a11.4,11.4,0,0,1-11.37-11.43Zm61.78,0V693.65a9.32,9.32,0,0,0-9.28-9.33H125.63a9.33,9.33,0,0,0-9.29,9.33v57.12a9.32,9.32,0,0,0,9.29,9.33h41.13a9.31,9.31,0,0,0,9.28-9.33Z"/><path class="cls-11" d="M106.33,683.28H65.19a10.36,10.36,0,0,0-10.32,10.38v57.12a10.35,10.35,0,0,0,10.32,10.37h41.14a10.35,10.35,0,0,0,10.33-10.37V693.66a10.37,10.37,0,0,0-10.33-10.38Z"/><path class="cls-11" d="M53.83,750.78V693.65A11.4,11.4,0,0,1,65.2,682.24h41.14a11.39,11.39,0,0,1,11.36,11.41v57.13a11.4,11.4,0,0,1-11.36,11.42H65.2a11.41,11.41,0,0,1-11.37-11.42Zm61.79,0V693.65a9.31,9.31,0,0,0-9.28-9.32H65.2a9.31,9.31,0,0,0-9.29,9.32v57.13a9.31,9.31,0,0,0,9.29,9.32h41.14a9.31,9.31,0,0,0,9.28-9.32Z"/><path class="cls-11" d="M114,615V573.64a10.36,10.36,0,0,0-10.32-10.37H46.82a10.36,10.36,0,0,0-10.33,10.37V615a10.35,10.35,0,0,0,10.33,10.37h56.85A10.35,10.35,0,0,0,114,615Z"/><path class="cls-11" d="M35.45,615V573.63a11.4,11.4,0,0,1,11.37-11.41h56.85A11.4,11.4,0,0,1,115,573.63V615a11.4,11.4,0,0,1-11.36,11.42H46.82A11.4,11.4,0,0,1,35.45,615Zm77.5,0V573.63a9.31,9.31,0,0,0-9.28-9.32H46.82a9.31,9.31,0,0,0-9.28,9.32V615a9.31,9.31,0,0,0,9.28,9.33h56.85A9.31,9.31,0,0,0,113,615Z"/><path class="cls-11" d="M114,675.68V634.35A10.36,10.36,0,0,0,103.66,624H46.82a10.36,10.36,0,0,0-10.33,10.37v41.33a10.36,10.36,0,0,0,10.33,10.38h56.84A10.36,10.36,0,0,0,114,675.68Z"/><path class="cls-11" d="M207.47,741.33V693.78a10.37,10.37,0,0,0-10.35-10.39H186.73a10.37,10.37,0,0,0-10.35,10.39v47.55a10.38,10.38,0,0,0,10.35,10.4h10.39a10.38,10.38,0,0,0,10.35-10.4Z"/><path class="cls-11" d="M35.45,553V511.7a11.41,11.41,0,0,1,11.37-11.42h56.84A11.4,11.4,0,0,1,115,511.7V553a11.4,11.4,0,0,1-11.37,11.43H46.82A11.41,11.41,0,0,1,35.45,553Zm77.5,0V511.7a9.32,9.32,0,0,0-9.29-9.33H46.82a9.32,9.32,0,0,0-9.28,9.33V553a9.3,9.3,0,0,0,9.28,9.33h56.84A9.31,9.31,0,0,0,113,553Z"/><path class="cls-11" d="M35.46,675.68V634.35a11.4,11.4,0,0,1,11.36-11.42h56.85A11.4,11.4,0,0,1,115,634.35v41.33a11.4,11.4,0,0,1-11.36,11.42H46.82a11.4,11.4,0,0,1-11.36-11.42Zm77.49,0V634.35a9.31,9.31,0,0,0-9.28-9.32H46.82a9.31,9.31,0,0,0-9.28,9.32v41.33A9.32,9.32,0,0,0,46.82,685h56.85a9.32,9.32,0,0,0,9.28-9.33Z"/><path class="cls-11" d="M175.35,741.33V693.78a11.43,11.43,0,0,1,11.38-11.45h10.39a11.43,11.43,0,0,1,11.39,11.45v47.55a11.41,11.41,0,0,1-11.39,11.44H186.73a11.41,11.41,0,0,1-11.38-11.44Zm31.08,0V693.78a9.34,9.34,0,0,0-9.31-9.35H186.73a9.33,9.33,0,0,0-9.3,9.35v47.55a9.33,9.33,0,0,0,9.3,9.35h10.39a9.34,9.34,0,0,0,9.31-9.35Z"/><path class="cls-11" d="M30.56,755.68V492.28a14.37,14.37,0,0,1,14.32-14.4h.9a14.37,14.37,0,0,1,14.32,14.4V740.39H189.9a14.36,14.36,0,0,1,14.33,14.39v.9a14.37,14.37,0,0,1-14.33,14.39h-145a14.37,14.37,0,0,1-14.33-14.39Z"/><path class="cls-11" d="M66.3,671.33H80.13a5.44,5.44,0,0,0,5.42-5.45V636a5.44,5.44,0,0,0-5.42-5.45H66.3A5.44,5.44,0,0,0,60.88,636v29.9a5.44,5.44,0,0,0,5.42,5.45Z"/><path class="cls-11" d="M66.3,671.33H80.13a5.44,5.44,0,0,0,5.42-5.45V636a5.44,5.44,0,0,0-5.42-5.45H66.3A5.44,5.44,0,0,0,60.88,636v29.9a5.44,5.44,0,0,0,5.42,5.45Z"/><path class="cls-11" d="M64.25,540.28l5.89,2A5.43,5.43,0,0,0,77,538.78l9.36-28.39a5.46,5.46,0,0,0-3.44-6.89L77,501.55A5.42,5.42,0,0,0,70.17,505l-9.36,28.38a5.47,5.47,0,0,0,3.44,6.89Z"/><path class="cls-11" d="M69.82,543.23l-5.89-2a6.51,6.51,0,0,1-4.1-8.21l9.35-28.38a6.46,6.46,0,0,1,8.17-4.13l5.88,2a6.5,6.5,0,0,1,4.11,8.21L78,539.11a6.46,6.46,0,0,1-8.17,4.12ZM76,538.44l9.36-28.38a4.42,4.42,0,0,0-2.79-5.56l-5.89-2a4.38,4.38,0,0,0-5.53,2.8L61.8,533.72a4.41,4.41,0,0,0,2.78,5.56l5.89,2a4.38,4.38,0,0,0,5.54-2.8Z"/><path class="cls-11" d="M65,672.24a6.48,6.48,0,0,1-5.16-6.36V636a6.48,6.48,0,0,1,6.46-6.49H80.13a6.24,6.24,0,0,1,1.3.14A6.47,6.47,0,0,1,86.59,636v29.91a6.48,6.48,0,0,1-6.46,6.49H66.3a6.23,6.23,0,0,1-1.3-.13Zm19.51-6.36V636a4.39,4.39,0,0,0-4.38-4.39H66.3A4.39,4.39,0,0,0,61.92,636v29.91a4.39,4.39,0,0,0,4.38,4.4H80.13a4.4,4.4,0,0,0,4.38-4.4Z"/><path class="cls-11" d="M29.73,755.68V492.28a15.19,15.19,0,0,1,15.15-15.23h.9A15.2,15.2,0,0,1,61,492.28V739.55h129a15.2,15.2,0,0,1,15.16,15.23v.9a15.2,15.2,0,0,1-15.16,15.23h-145a15.2,15.2,0,0,1-15.16-15.23Zm173.66,0v-.9a13.53,13.53,0,0,0-13.49-13.55H59.27v-249a13.53,13.53,0,0,0-13.48-13.55h-.9a13.53,13.53,0,0,0-13.48,13.55v263.4a13.52,13.52,0,0,0,13.49,13.55h145a13.53,13.53,0,0,0,13.49-13.55Z"/><path class="cls-11" d="M75.41,744.11l13-4.73a5.48,5.48,0,0,0,3.25-7l-10.15-28.1a5.44,5.44,0,0,0-7-3.27l-13,4.74a5.47,5.47,0,0,0-3.25,7l10.15,28.1a5.43,5.43,0,0,0,7,3.26Z"/><path class="cls-11" d="M67.48,741.2,57.34,713.1a6.5,6.5,0,0,1,3.87-8.32l13-4.74a6.46,6.46,0,0,1,8.28,3.89L92.64,732a6.51,6.51,0,0,1-3.88,8.31l-13,4.74a6.46,6.46,0,0,1-8.29-3.89Zm7.58,1.92,13-4.73a4.41,4.41,0,0,0,2.63-5.64L80.52,704.64A4.39,4.39,0,0,0,74.91,702l-13,4.74a4.42,4.42,0,0,0-2.62,5.65l10.14,28.1a4.39,4.39,0,0,0,5.62,2.63Z"/></g><g id="balkoin"><polygon class="cls-4" points="349.63 170.84 399.47 170.84 399.47 30.38 349.63 30.38 349.63 170.84 349.63 170.84"/><path class="cls-5" d="M348.59,171.88V29.33h51.92V171.88Zm49.84-2.09V31.42H350.68V169.79Z"/></g><g id="sofa1"><path class="cls-4" d="M94,349.22,122,340a8.07,8.07,0,0,0,5.12-10.19l-14-42.15a8.06,8.06,0,0,0-10.19-5.12l-28,9.27A8.08,8.08,0,0,0,69.8,302l14,42.15A8.07,8.07,0,0,0,94,349.22Z"/><path class="cls-4" d="M49.34,317.37,61,352.46a8.08,8.08,0,0,0,10.21,5.13l7.7-2.55A8.07,8.07,0,0,0,84,344.83L72.39,309.74a8.1,8.1,0,0,0-10.22-5.13l-7.7,2.55a8.07,8.07,0,0,0-5.13,10.21Z"/><path class="cls-5" d="M60,352.79,48.35,317.7a9.12,9.12,0,0,1,5.79-11.53l7.7-2.55a9.13,9.13,0,0,1,11.54,5.79L85,344.49A9.14,9.14,0,0,1,79.2,356l-7.7,2.55A9.13,9.13,0,0,1,60,352.79Zm10.87,3.81,7.71-2.55a7,7,0,0,0,4.46-8.9L71.4,310.07a7,7,0,0,0-8.9-4.47l-7.7,2.55A7,7,0,0,0,50.33,317L62,352.13a7,7,0,0,0,8.89,4.47Z"/><path class="cls-5" d="M82.77,344.43l-14-42.15a9.11,9.11,0,0,1,5.78-11.51l28-9.27a9.11,9.11,0,0,1,11.51,5.78l14,42.15a9.12,9.12,0,0,1-5.79,11.51l-28,9.27a9.12,9.12,0,0,1-11.52-5.78Zm10.86,3.8,28-9.27a7,7,0,0,0,4.46-8.87l-14-42.15a7,7,0,0,0-8.88-4.46l-28,9.27a7,7,0,0,0-4.46,8.87l14,42.15a7,7,0,0,0,8.87,4.46Z"/><path class="cls-4" d="M137.17,334.91l28-9.27a8.07,8.07,0,0,0,5.12-10.19l-14-42.16a8.06,8.06,0,0,0-10.18-5.11l-28,9.27A8.06,8.06,0,0,0,113,287.64l14,42.15a8.06,8.06,0,0,0,10.19,5.12Z"/><path class="cls-5" d="M126,330.12,112,288a9.11,9.11,0,0,1,5.78-11.51l28-9.27A9.11,9.11,0,0,1,157.32,273l14,42.15a9.11,9.11,0,0,1-5.79,11.51l-28,9.27A9.11,9.11,0,0,1,126,330.12Zm10.85,3.8,28-9.28a7,7,0,0,0,4.46-8.86l-14-42.15a7,7,0,0,0-8.86-4.46l-28,9.27a7,7,0,0,0-4.46,8.87l14,42.15a7,7,0,0,0,8.87,4.46Z"/><path class="cls-4" d="M157.88,281.43l11.62,35.09a8.09,8.09,0,0,0,10.22,5.13l7.69-2.55a8.09,8.09,0,0,0,5.14-10.22L180.93,273.8a8.08,8.08,0,0,0-10.22-5.13l-7.7,2.54a8.1,8.1,0,0,0-5.13,10.22Z"/><path class="cls-5" d="M168.51,316.84l-11.62-35.08a9.12,9.12,0,0,1,5.8-11.53l7.69-2.56a9.14,9.14,0,0,1,11.54,5.8l11.62,35.09a9.13,9.13,0,0,1-5.8,11.53l-7.7,2.55a9.12,9.12,0,0,1-11.53-5.8Zm10.88,3.81,7.69-2.54a7,7,0,0,0,4.47-8.9l-11.62-35.09a7,7,0,0,0-8.89-4.46l-7.69,2.55a7,7,0,0,0-4.48,8.89l11.62,35.09a7,7,0,0,0,8.9,4.46Z"/><path class="cls-4" d="M60.36,316l111-36.77a11.19,11.19,0,0,0,7.11-14.14l-.22-.66a11.2,11.2,0,0,0-14.14-7.1l-111,36.76A11.2,11.2,0,0,0,46,308.24l.23.67A11.19,11.19,0,0,0,60.36,316Z"/><path class="cls-5" d="M45.23,309.24l-.22-.66a12.24,12.24,0,0,1,7.76-15.46l111-36.76a12.23,12.23,0,0,1,15.46,7.76l.22.67a12.23,12.23,0,0,1-7.76,15.45L60.69,317a12.23,12.23,0,0,1-15.46-7.76ZM60,315l111-36.76a10.14,10.14,0,0,0,6.44-12.81l-.23-.67a10.13,10.13,0,0,0-12.81-6.44l-111,36.76A10.16,10.16,0,0,0,47,307.92l.23.67A10.14,10.14,0,0,0,60,315Z"/><path class="cls-7" d="M132.55,293.88v4.84a4.23,4.23,0,0,0,4.23,4.23H160a4.23,4.23,0,0,0,4.23-4.23v-4.84a4.24,4.24,0,0,0-4.23-4.24H136.78a4.24,4.24,0,0,0-4.23,4.24Z"/><path class="cls-5" d="M131.51,298.72v-4.85a5.27,5.27,0,0,1,5.27-5.27H160a5.28,5.28,0,0,1,5.28,5.27v4.85A5.29,5.29,0,0,1,160,304H136.78a5.28,5.28,0,0,1-5.27-5.28Zm31.71,0v-4.85a3.19,3.19,0,0,0-3.19-3.18H136.78a3.19,3.19,0,0,0-3.19,3.18v4.85a3.2,3.2,0,0,0,3.19,3.19H160a3.2,3.2,0,0,0,3.19-3.19Z"/></g><g id="ttable1"><polygon class="cls-4" points="85.75 381.35 102.88 431.11 212.46 393.39 195.33 343.63 85.75 381.35 85.75 381.35"/><polygon class="cls-7" points="104.92 383.17 116.87 417.87 193.28 391.57 181.34 356.87 104.92 383.17 104.92 383.17"/></g><g id="tee_table2"><path class="cls-7" d="M159.93,574c0-33.18,14-60.11,31.33-60.11S222.58,540.8,222.58,574s-14,60.1-31.32,60.1-31.33-26.93-31.33-60.1Z"/><polygon class="cls-1" points="182.28 620.71 203.63 613.42 198.39 598.06 177.04 605.35 182.28 620.71 182.28 620.71"/><path class="cls-5" d="M158.89,574c0-33.15,14-61.15,32.37-61.15s32.37,28.08,32.37,61.15-14,61.15-32.37,61.15S158.89,607.05,158.89,574Zm62.65,0c0-33.2-14.07-59.06-30.28-59.06S161,540.7,161,574,175,633,191.26,633s30.28-25.78,30.28-59.06Z"/><path class="cls-5" d="M181.63,622l-5.91-17.34,23.33-8L205,614.07l-23.33,8Zm1.3-2.66,19.38-6.62-4.56-13.37L178.36,606l4.57,13.38Z"/><polygon class="cls-1" points="175.12 569.83 199.66 574.9 203.3 557.27 178.76 552.19 175.12 569.83 175.12 569.83"/><path class="cls-5" d="M200.47,576.14l-26.59-5.5L178,551l26.59,5.49-4.07,19.69Zm-1.62-2.47,3.22-15.6-22.5-4.65L176.35,569l22.5,4.65Z"/><polygon class="cls-4" points="179.66 567.65 204.4 563.61 201.5 545.84 176.76 549.88 179.66 567.65 179.66 567.65"/><path class="cls-5" d="M178.8,568.85,175.56,549l26.8-4.38,3.24,19.84-26.8,4.37Zm1.72-2.4,22.68-3.7L200.64,547,178,550.74l2.56,15.71Z"/></g><text class="cls-8" transform="translate(729.82 472.93)"><tspan class="cls-9">L</tspan><tspan x="5.5" y="0">o</tspan><tspan class="cls-10" x="12.08" y="0">r</tspan><tspan x="15.89" y="0">em ipsum</tspan></text><text class="cls-8" transform="translate(865.79 479.39)"><tspan class="cls-9">L</tspan><tspan x="5.5" y="0">o</tspan><tspan class="cls-10" x="12.08" y="0">r</tspan><tspan x="15.89" y="0">em ipsum</tspan></text></g></svg>